<svg width="143" height="134" viewBox="0 0 143 134" fill="none" xmlns="http://www.w3.org/2000/svg">
<mask id="mask0_1_5502" style="mask-type:luminance" maskUnits="userSpaceOnUse" x="82" y="92" width="23" height="42">
<path d="M82 92.3333H104.667V133.646H82V92.3333Z" fill="white"/>
</mask>
<g mask="url(#mask0_1_5502)">
<path d="M100.307 93.5938C97.1563 97.9479 93.6823 101.609 89.9844 104.474C85.1979 108.182 82.4531 113.656 82.4531 119.49V131.401C82.4531 132.651 83.4635 133.661 84.7188 133.661C85.9688 133.661 86.9844 132.651 86.9844 131.401V119.49C86.9844 115.063 89.0885 110.891 92.7656 108.047C96.7969 104.922 100.573 100.948 103.979 96.2448C104.708 95.2292 104.479 93.8177 103.469 93.0833C102.448 92.3542 101.036 92.5781 100.307 93.5938Z" fill="#100F0D"/>
</g>
<mask id="mask1_1_5502" style="mask-type:luminance" maskUnits="userSpaceOnUse" x="0" y="0" width="104" height="134">
<path d="M0.151123 0.333313H103.333V133.646H0.151123V0.333313Z" fill="white"/>
</mask>
<g mask="url(#mask1_1_5502)">
<path d="M41.578 111.187H25.7864C21.8645 111.187 18.6718 108 18.6718 104.083V83.0468C18.6718 81.802 17.6562 80.7864 16.4062 80.7864H5.53638C5.32283 80.7864 5.19784 80.6718 5.13533 80.5781C5.06763 80.4791 4.99992 80.3229 5.07804 80.125L12.9218 59.2448C14.3333 54.9114 14.9947 46.6093 15.0937 42.0833C15.3489 30.6666 20.6093 4.23433 64.6458 5.14058C79.703 5.45829 91.3853 9.79683 99.3801 18.0364C100.25 18.9323 101.687 18.9531 102.583 18.0833C103.479 17.2187 103.505 15.7864 102.63 14.8854C93.7812 5.76559 81.0312 0.963501 64.7447 0.619751C16.4999 -0.338582 10.8489 29.2083 10.5624 41.9843C10.4739 46.0781 9.8645 54.0052 8.65096 57.7552L0.838459 78.5312C0.260334 80.0729 0.468667 81.802 1.41138 83.151C2.34888 84.5052 3.89054 85.3125 5.53638 85.3125H14.1405V104.083C14.1405 110.495 19.3645 115.714 25.7864 115.714H39.3124V131.135C39.3124 132.385 40.328 133.396 41.578 133.396C42.8333 133.396 43.8437 132.385 43.8437 131.135V113.453C43.8437 112.203 42.8333 111.187 41.578 111.187Z" fill="#100F0D"/>
</g>
<mask id="mask2_1_5502" style="mask-type:luminance" maskUnits="userSpaceOnUse" x="94" y="24" width="49" height="50">
<path d="M94 24.3333H142.151V73.6666H94V24.3333Z" fill="white"/>
</mask>
<g mask="url(#mask2_1_5502)">
<path d="M137.521 50.7291L133.063 51.5781C132.677 53.6302 131.875 55.5364 130.734 57.1979L133.286 60.9427L130.609 63.6146L126.865 61.0677C125.198 62.2031 123.292 63.0052 121.234 63.3906L120.391 67.8385H116.604L115.755 63.3906C113.698 63.0052 111.792 62.2031 110.125 61.0677L106.38 63.6146L103.703 60.9427L106.255 57.1979C105.115 55.5364 104.313 53.6302 103.927 51.5781L99.4688 50.7291V46.9531L103.927 46.1041C104.313 44.0521 105.115 42.1458 106.255 40.4844L103.703 36.7448L106.38 34.0677L110.125 36.6198C111.792 35.4791 113.698 34.6771 115.755 34.2916L116.604 29.8385H120.391L121.234 34.2916C123.292 34.6771 125.198 35.4791 126.865 36.6198L130.609 34.0677L133.286 36.7448L130.734 40.4844C131.875 42.1458 132.677 44.0521 133.063 46.1041L137.521 46.9531V50.7291ZM138.365 42.5104L136.672 42.1875C136.484 41.6875 136.281 41.1927 136.057 40.7135L137.031 39.2864C138.255 37.4948 138.026 35.0833 136.49 33.5469L133.813 30.8698C132.938 29.9948 131.776 29.5469 130.609 29.5469C129.724 29.5469 128.833 29.8021 128.063 30.3333L126.635 31.3021C126.151 31.0781 125.661 30.875 125.161 30.6927L124.839 29C124.432 26.8646 122.563 25.3177 120.391 25.3177H116.604C114.427 25.3177 112.557 26.8646 112.151 29L111.828 30.6927C111.328 30.875 110.839 31.0781 110.354 31.3021L108.927 30.3333C108.156 29.8021 107.266 29.5469 106.38 29.5469C105.214 29.5469 104.052 29.9948 103.177 30.8698L100.5 33.5469C98.9635 35.0833 98.7344 37.4948 99.9583 39.2864L100.932 40.7135C100.708 41.1927 100.5 41.6875 100.323 42.1875L98.625 42.5104C96.4896 42.9114 94.9375 44.776 94.9375 46.9531V50.7291C94.9375 52.9062 96.4896 54.7708 98.625 55.1771L100.323 55.4948C100.5 55.9948 100.708 56.4896 100.932 56.9687L99.9583 58.3958C98.7344 60.1927 98.9635 62.5989 100.5 64.1406L103.177 66.8125C104.052 67.6875 105.214 68.1354 106.38 68.1354C107.266 68.1354 108.156 67.8802 108.927 67.3489L110.354 66.3802C110.839 66.6041 111.328 66.8073 111.828 66.9896L112.151 68.6875C112.557 70.8177 114.427 72.3646 116.604 72.3646H120.391C122.563 72.3646 124.432 70.8177 124.839 68.6875L125.161 66.9896C125.661 66.8073 126.151 66.6041 126.635 66.3802L128.063 67.3489C128.833 67.8802 129.724 68.1354 130.609 68.1354C131.776 68.1354 132.938 67.6875 133.813 66.8125L136.49 64.1406C138.026 62.5989 138.255 60.1927 137.031 58.3958L136.057 56.9687C136.281 56.4896 136.484 55.9948 136.672 55.4948L138.365 55.1771C140.505 54.7708 142.052 52.9062 142.052 50.7291V46.9531C142.052 44.776 140.505 42.9114 138.365 42.5104Z" fill="#100F0D"/>
</g>
<path d="M118.495 55.3177C114.917 55.3177 112.01 52.4115 112.01 48.8438C112.01 45.2708 114.917 42.3646 118.495 42.3646C122.068 42.3646 124.979 45.2708 124.979 48.8438C124.979 52.4115 122.068 55.3177 118.495 55.3177ZM118.495 37.8438C112.422 37.8438 107.479 42.776 107.479 48.8438C107.479 54.9063 112.422 59.8385 118.495 59.8385C124.568 59.8385 129.505 54.9063 129.505 48.8438C129.505 42.776 124.568 37.8438 118.495 37.8438Z" fill="#100F0D"/>
<path d="M75.0885 83.9635C72.5416 85.7552 69.6249 87.0208 66.4739 87.6302L65.1822 94.651H59.3905L58.0989 87.6302C54.953 87.0208 52.0312 85.7552 49.4895 83.9635L43.7603 87.9791L39.6666 83.7656L43.5676 77.8646C41.8228 75.2448 40.5937 72.2344 40.0103 68.9948L33.1874 67.6614V61.6979L40.0103 60.3646C40.5937 57.125 41.8228 54.1198 43.5676 51.5L39.6666 45.5989L43.7603 41.3802L49.4895 45.401C52.0312 43.6041 54.953 42.3385 58.0989 41.7344L59.3905 34.7135H65.1822L66.4739 41.7344C69.6249 42.3385 72.5416 43.6041 75.0885 45.401L80.8176 41.3802L84.9114 45.5989L81.0103 51.5C82.7499 54.1198 83.9791 57.125 84.5676 60.3646L91.3853 61.6979V67.6614L84.5676 68.9948C83.9791 72.2344 82.7499 75.2448 81.0103 77.8646L84.9114 83.7656L80.8176 87.9791L75.0885 83.9635ZM88.1614 86.9114C89.6405 85.3906 89.8593 83.0416 88.6874 81.2708L86.3385 77.7187C87.1405 76.1719 87.7916 74.5521 88.2916 72.875L92.2551 72.0989C94.3801 71.6875 95.9114 69.8281 95.9114 67.6614V61.6979C95.9114 59.5364 94.3801 57.6771 92.2551 57.2604L88.2916 56.4844C87.7916 54.8073 87.1405 53.1927 86.3385 51.6458L88.6874 48.0885C89.8593 46.3177 89.6405 43.9739 88.1614 42.4479L84.0676 38.2344C83.1874 37.3281 82.0051 36.8594 80.8124 36.8594C79.9114 36.8594 78.9999 37.1302 78.2135 37.6823L74.9218 39.9896C73.4791 39.2135 71.9687 38.5729 70.4062 38.0729L69.6353 33.8958C69.2395 31.7448 67.3645 30.1927 65.1822 30.1927H59.3905C57.2083 30.1927 55.3333 31.7448 54.9374 33.8958L54.1666 38.0729C52.6041 38.5729 51.0937 39.2135 49.651 39.9896L46.3645 37.6823C45.578 37.1302 44.6666 36.8594 43.7603 36.8594C42.5676 36.8594 41.3853 37.3281 40.5051 38.2344L36.4114 42.4479C34.9322 43.9739 34.7135 46.3177 35.8853 48.0885L38.2343 51.6458C37.4374 53.1927 36.7864 54.8073 36.2864 56.4844L32.3176 57.2604C30.1926 57.6771 28.6614 59.5364 28.6614 61.6979V67.6614C28.6614 69.8281 30.1926 71.6875 32.3176 72.0989L36.2864 72.875C36.7864 74.5521 37.4374 76.1719 38.2343 77.7187L35.8853 81.2708C34.7135 83.0416 34.9322 85.3906 36.4114 86.9114L40.5051 91.1302C41.3853 92.0364 42.5676 92.5052 43.7603 92.5052C44.6666 92.5052 45.5728 92.2344 46.3645 91.6823L49.651 89.375C51.0937 90.151 52.6041 90.7916 54.1666 91.2864L54.9374 95.4687C55.3333 97.6146 57.2083 99.1719 59.3905 99.1719H65.1822C67.3645 99.1719 69.2395 97.6146 69.6353 95.4687L70.4062 91.2864C71.9687 90.7916 73.4791 90.151 74.9218 89.375L78.2135 91.6823C78.9999 92.2344 79.9114 92.5052 80.8124 92.5052C82.0051 92.5052 83.1874 92.0364 84.0676 91.1302L88.1614 86.9114Z" fill="#100F0D"/>
<path d="M62.2864 78.2604C55.0572 78.2604 49.1718 72.1667 49.1718 64.6823C49.1718 57.1927 55.0572 51.1042 62.2864 51.1042C69.5208 51.1042 75.401 57.1927 75.401 64.6823C75.401 72.1667 69.5208 78.2604 62.2864 78.2604ZM62.2864 46.5781C52.5572 46.5781 44.6458 54.7031 44.6458 64.6823C44.6458 74.6615 52.5572 82.7813 62.2864 82.7813C72.0155 82.7813 79.9322 74.6615 79.9322 64.6823C79.9322 54.7031 72.0155 46.5781 62.2864 46.5781Z" fill="#100F0D"/>
<path d="M66.9346 71.2201H64.0387L62.9762 67.9909H57.6429L56.5804 71.2201H53.7471L58.5804 57.2618H62.1221L66.9346 71.2201ZM60.1846 60.1784L58.3721 65.6784H62.2262L60.4137 60.1784H60.1846Z" fill="black"/>
<path d="M69.9782 59.4284C69.5042 59.4284 69.1136 59.2826 68.8115 58.9909C68.5199 58.6993 68.374 58.3243 68.374 57.8659C68.374 57.4076 68.5199 57.043 68.8115 56.7618C69.1136 56.4701 69.5042 56.3243 69.9782 56.3243C70.2959 56.3243 70.5824 56.3972 70.8324 56.5326C71.0824 56.6576 71.2751 56.8399 71.4157 57.0743C71.5511 57.2982 71.624 57.5639 71.624 57.8659C71.624 58.1732 71.5511 58.4441 71.4157 58.6784C71.2751 58.918 71.0824 59.1055 70.8324 59.2409C70.5824 59.3659 70.2959 59.4284 69.9782 59.4284ZM68.6657 71.2201V60.6784H71.3115V71.2201H68.6657Z" fill="black"/>
</svg>
