<svg width="144" height="144" viewBox="0 0 144 144" fill="none" xmlns="http://www.w3.org/2000/svg">
<path d="M23.526 16.3281C25.026 16.3281 26.2603 15.0938 26.2603 13.5938C26.2603 12.0938 25.026 10.8594 23.526 10.8594C22.026 10.8594 20.7864 12.0938 20.7864 13.5938C20.7864 15.1823 22.026 16.3281 23.526 16.3281ZM23.526 12.7083C24.052 12.7083 24.4947 13.151 24.4947 13.6823C24.4947 14.2135 24.052 14.651 23.526 14.651C22.9947 14.651 22.552 14.2135 22.552 13.6823C22.552 13.151 22.9947 12.7083 23.526 12.7083Z" fill="black"/>
<path d="M30.5885 16.3281C32.0885 16.3281 33.3228 15.0938 33.3228 13.5938C33.3228 12.0938 32.0885 10.8594 30.5885 10.8594C29.0833 10.8594 27.8489 12.0938 27.8489 13.5938C27.9374 15.1823 29.0833 16.3281 30.5885 16.3281ZM30.5885 12.7083C31.1145 12.7083 31.5572 13.151 31.5572 13.6823C31.5572 14.2135 31.1145 14.651 30.5885 14.651C30.0572 14.651 29.6145 14.2135 29.6145 13.6823C29.703 13.151 30.0572 12.7083 30.5885 12.7083Z" fill="black"/>
<path d="M37.7344 16.3281C39.2396 16.3281 40.474 15.0938 40.474 13.5938C40.474 12.0938 39.2396 10.8594 37.7344 10.8594C36.2344 10.8594 35 12.0938 35 13.5938C35 15.1823 36.2344 16.3281 37.7344 16.3281ZM37.7344 12.7083C38.2656 12.7083 38.7083 13.151 38.7083 13.6823C38.7083 14.2135 38.2656 14.651 37.7344 14.651C37.2083 14.651 36.7656 14.2135 36.7656 13.6823C36.7656 13.151 37.2083 12.7083 37.7344 12.7083Z" fill="black"/>
<path d="M45.151 16.3281H83.5468C85.052 16.3281 86.2864 15.0938 86.2864 13.5938C86.2864 12.0938 85.052 10.8594 83.5468 10.8594H45.151C43.651 10.8594 42.4166 12.0938 42.4166 13.5938C42.4166 15.1823 43.651 16.3281 45.151 16.3281ZM45.151 12.7083H83.5468C84.0781 12.7083 84.5208 13.151 84.5208 13.6823C84.5208 14.2135 84.0781 14.651 83.5468 14.651H45.151C44.6198 14.651 44.1823 14.2135 44.1823 13.6823C44.1823 13.151 44.6198 12.7083 45.151 12.7083Z" fill="black"/>
<mask id="mask0_12_6" style="mask-type:luminance" maskUnits="userSpaceOnUse" x="0" y="0" width="144" height="144">
<path d="M0.130127 0.96875H143.13V143.969H0.130127V0.96875Z" fill="white"/>
</mask>
<g mask="url(#mask0_12_6)">
<path d="M143.13 72.4688C143.13 33.0156 111.088 0.96875 71.6301 0.96875C61.3072 0.96875 51.328 3.08854 41.9739 7.41667H21.4062C18.4062 7.41667 15.8437 9.35417 14.8749 12.0052C14.6093 12.7083 14.4322 13.5052 14.4322 14.3854V29.4844C5.07804 41.9271 0.130127 56.849 0.130127 72.4688C0.130127 111.661 31.9114 143.969 71.6301 143.969C89.3749 143.969 107.38 137.349 121.328 123.844H125.656C129.802 123.844 133.156 120.49 133.156 116.344V108.839C139.693 97.8906 143.13 85.2708 143.13 72.4688ZM71.6301 2.73438C110.12 2.73438 141.37 33.9844 141.37 72.4688C141.37 83.9479 138.542 95.2448 133.156 105.219V50.8438C133.156 46.6927 129.802 43.3385 125.656 43.3385H92.4635V14.2969C92.4635 12.4479 91.7603 10.7708 90.5208 9.53125C89.2864 8.20833 87.5208 7.32812 85.4895 7.32812H46.5624C54.5103 4.32292 62.9843 2.73438 71.6301 2.73438ZM73.8385 44.224V47.4896H71.1926C70.6614 47.4896 70.3072 47.8438 70.3072 48.3698C70.3072 48.901 70.6614 49.2552 71.1926 49.2552H73.8385V51.6406H71.1926C70.6614 51.6406 70.3072 51.9896 70.3072 52.5208C70.3072 53.0521 70.6614 53.4062 71.1926 53.4062H73.8385V55.7865H71.1926C70.6614 55.7865 70.3072 56.1406 70.3072 56.6719C70.3072 57.1979 70.6614 57.5521 71.1926 57.5521H73.8385V59.9375H71.1926C70.6614 59.9375 70.3072 60.2865 70.3072 60.8177C70.3072 61.349 70.6614 61.7031 71.1926 61.7031H73.8385V64.0833H71.1926C70.6614 64.0833 70.3072 64.4375 70.3072 64.9688C70.3072 65.4948 70.6614 65.849 71.1926 65.849H73.8385V68.2344H71.1926C70.6614 68.2344 70.3072 68.5885 70.3072 69.1146C70.3072 69.6458 70.6614 70 71.1926 70H73.8385V72.3802H71.1926C70.6614 72.3802 70.3072 72.7344 70.3072 73.2656C70.3072 73.7969 70.6614 74.1458 71.1926 74.1458H73.8385V76.5312H71.1926C70.6614 76.5312 70.3072 76.8854 70.3072 77.4115C70.3072 77.9427 70.6614 78.2969 71.1926 78.2969H73.8385V80.6823H71.1926C70.6614 80.6823 70.3072 81.0312 70.3072 81.5625C70.3072 82.0938 70.6614 82.4427 71.1926 82.4427H73.8385V84.8281H71.1926C70.6614 84.8281 70.3072 85.1823 70.3072 85.7135C70.3072 86.2396 70.6614 86.5938 71.1926 86.5938H73.8385V88.9792H71.1926C70.6614 88.9792 70.3072 89.3281 70.3072 89.8594C70.3072 90.3906 70.6614 90.7448 71.1926 90.7448H73.8385V93.125H71.1926C70.6614 93.125 70.3072 93.4792 70.3072 94.0104C70.3072 94.5365 70.6614 94.8906 71.1926 94.8906H73.8385V97.276H71.1926C70.6614 97.276 70.3072 97.6302 70.3072 98.1562C70.3072 98.6875 70.6614 99.0417 71.1926 99.0417H73.8385V101.422H71.1926C70.6614 101.422 70.3072 101.776 70.3072 102.307C70.3072 102.833 70.6614 103.188 71.1926 103.188H73.8385V105.573H71.1926C70.6614 105.573 70.3072 105.927 70.3072 106.453C70.3072 106.984 70.6614 107.339 71.1926 107.339H73.8385V109.719H21.4062C18.5833 109.719 16.2864 107.427 16.2864 104.599V19.9479H90.7864V43.3385H74.7239C74.1926 43.3385 73.8385 43.7812 73.8385 44.224ZM21.4062 9.18229H85.578C86.9895 9.18229 88.3176 9.79688 89.1978 10.6823C90.1718 11.651 90.6978 12.8854 90.6978 14.2969V18.1823H16.2864V14.2969C16.2864 13.5938 16.4635 12.974 16.6405 12.3594C17.4322 10.5052 19.2864 9.18229 21.4062 9.18229ZM1.89575 72.4688C1.89575 57.9948 6.22388 44.224 14.5208 32.4844V104.516C14.5208 108.307 17.6093 111.396 21.4062 111.396H73.8385V113.781H71.1926C70.6614 113.781 70.3072 114.135 70.3072 114.667C70.3072 115.193 70.6614 115.547 71.1926 115.547H73.8385V117.932H71.1926C70.6614 117.932 70.3072 118.281 70.3072 118.812C70.3072 119.344 70.6614 119.698 71.1926 119.698H73.8385V122.078H22.7291C9.84367 109.458 1.89575 91.8906 1.89575 72.4688ZM71.6301 142.203C53.802 142.203 37.1197 135.406 24.4947 123.844H118.771C105.792 135.76 88.9322 142.203 71.6301 142.203ZM131.391 116.344C131.391 119.521 128.833 122.078 125.656 122.078H75.6041V119.698H78.2551C78.7812 119.698 79.1353 119.344 79.1353 118.812C79.1353 118.281 78.7812 117.932 78.2551 117.932H75.6041V115.547H78.2551C78.7812 115.547 79.1353 115.193 79.1353 114.667C79.1353 114.135 78.7812 113.781 78.2551 113.781H75.6041V111.396H78.2551C78.7812 111.396 79.1353 111.047 79.1353 110.516C79.1353 109.984 78.7812 109.63 78.2551 109.63H75.6041V107.25H78.2551C78.7812 107.25 79.1353 106.896 79.1353 106.365C79.1353 105.839 78.7812 105.484 78.2551 105.484H75.6041V103.099H78.2551C78.7812 103.099 79.1353 102.75 79.1353 102.219C79.1353 101.688 78.7812 101.333 78.2551 101.333H75.6041V98.9531H78.2551C78.7812 98.9531 79.1353 98.599 79.1353 98.0677C79.1353 97.5417 78.7812 97.1875 78.2551 97.1875H75.6041V94.8021H78.2551C78.7812 94.8021 79.1353 94.4479 79.1353 93.9219C79.1353 93.3906 78.7812 93.0365 78.2551 93.0365H75.6041V90.6562H78.2551C78.7812 90.6562 79.1353 90.3021 79.1353 89.7708C79.1353 89.2396 78.7812 88.8906 78.2551 88.8906H75.6041V86.5052H78.2551C78.7812 86.5052 79.1353 86.151 79.1353 85.625C79.1353 85.0938 78.7812 84.7396 78.2551 84.7396H75.6041V82.3594H78.2551C78.7812 82.3594 79.1353 82.0052 79.1353 81.474C79.1353 80.9427 78.7812 80.5938 78.2551 80.5938H75.6041V78.2083H78.2551C78.7812 78.2083 79.1353 77.8542 79.1353 77.3229C79.1353 76.7969 78.7812 76.4427 78.2551 76.4427H75.6041V74.0573H78.2551C78.7812 74.0573 79.1353 73.7083 79.1353 73.1771C79.1353 72.6458 78.7812 72.2917 78.2551 72.2917H75.6041V69.9115H78.2551C78.7812 69.9115 79.1353 69.5573 79.1353 69.026C79.1353 68.5 78.7812 68.1458 78.2551 68.1458H75.6041V65.849H78.2551C78.7812 65.849 79.1353 65.4948 79.1353 64.9688C79.1353 64.4375 78.7812 64.0833 78.2551 64.0833H75.6041V61.7031H78.2551C78.7812 61.7031 79.1353 61.349 79.1353 60.8177C79.1353 60.2865 78.7812 59.9375 78.2551 59.9375H75.6041V57.5521H78.2551C78.7812 57.5521 79.1353 57.1979 79.1353 56.6719C79.1353 56.1406 78.7812 55.7865 78.2551 55.7865H75.6041V53.4062H78.2551C78.7812 53.4062 79.1353 53.0521 79.1353 52.5208C79.1353 51.9896 78.7812 51.6406 78.2551 51.6406H75.6041V49.2552H78.2551C78.7812 49.2552 79.1353 48.901 79.1353 48.3698C79.1353 47.8438 78.7812 47.4896 78.2551 47.4896H75.6041V45.1042H125.656C128.833 45.1042 131.391 47.6667 131.391 50.8438V116.344Z" fill="black"/>
</g>
<path d="M69.6042 129.229C69.6042 128.698 69.25 128.349 68.7188 128.349H47.3594C46.8282 128.349 46.474 128.698 46.474 129.229C46.474 130.463 46.0365 130.109 68.7188 130.109C69.1615 130.109 69.6042 129.672 69.6042 129.229Z" fill="black"/>
<path d="M71.2812 129.229C71.2812 129.76 71.6302 130.109 72.1615 130.109H75.6927C76.224 130.109 76.5781 129.76 76.5781 129.229C76.5781 128.698 76.224 128.349 75.6927 128.349H72.1615C71.6302 128.349 71.2812 128.698 71.2812 129.229Z" fill="black"/>
<path d="M78.6927 130.109H80.9896C81.5208 130.109 81.8698 129.76 81.8698 129.229C81.8698 128.698 81.5208 128.349 80.9896 128.349H78.6927C78.1667 128.349 77.8125 128.698 77.8125 129.229C77.8125 129.672 78.1667 130.109 78.6927 130.109Z" fill="black"/>
<path d="M73.6614 133.552C73.6614 134.083 74.0155 134.438 74.5468 134.438H95.9062C96.4374 134.438 96.7916 134.083 96.7916 133.552C96.7916 133.026 96.4374 132.672 95.9062 132.672H74.5468C74.1041 132.672 73.6614 133.026 73.6614 133.552Z" fill="black"/>
<path d="M71.1042 132.672H67.5729C67.0417 132.672 66.6875 133.026 66.6875 133.552C66.6875 134.083 67.0417 134.438 67.5729 134.438H71.1042C71.6302 134.438 71.9844 134.083 71.9844 133.552C71.9844 133.026 71.6302 132.672 71.1042 132.672Z" fill="black"/>
<path d="M64.5728 132.672H62.276C61.7447 132.672 61.3958 133.026 61.3958 133.552C61.3958 134.083 61.7447 134.438 62.276 134.438H64.5728C65.0989 134.438 65.453 134.083 65.453 133.552C65.453 133.026 65.0989 132.672 64.5728 132.672Z" fill="black"/>
<path d="M23.6145 27.0989H32.8802C33.4114 27.0989 33.7656 26.7447 33.7656 26.2135C33.7656 25.6874 33.4114 25.3333 32.8802 25.3333H23.6145C23.0833 25.3333 22.7291 25.6874 22.7291 26.2135C22.7291 26.6562 23.0833 27.0989 23.6145 27.0989Z" fill="black"/>
<path d="M27.5833 33.3645H40.5625C41.0885 33.3645 41.4427 33.0155 41.4427 32.4843C41.4427 31.953 41.0885 31.5989 40.5625 31.5989H27.5833C27.0573 31.5989 26.7031 31.953 26.7031 32.4843C26.7031 33.0155 27.0573 33.3645 27.5833 33.3645Z" fill="black"/>
<path d="M45.328 33.3645H58.302C58.8333 33.3645 59.1874 33.0155 59.1874 32.4843C59.1874 31.953 58.8333 31.5989 58.302 31.5989H45.328C44.7968 31.5989 44.4426 31.953 44.4426 32.4843C44.4426 33.0155 44.7968 33.3645 45.328 33.3645Z" fill="black"/>
<path d="M54.9479 38.8385C54.9479 38.3072 54.5938 37.9583 54.0677 37.9583H27.5833C27.0573 37.9583 26.7031 38.3072 26.7031 38.8385C26.7031 39.3697 27.0573 39.7239 27.5833 39.7239H54.0677C54.5104 39.7239 54.9479 39.3697 54.9479 38.8385Z" fill="black"/>
<path d="M41.4427 45.1927C41.4427 44.6667 41.0885 44.3125 40.5625 44.3125H27.5833C27.0573 44.3125 26.7031 44.6667 26.7031 45.1927C26.7031 45.724 27.0573 46.0781 27.5833 46.0781H40.5625C41 46.0781 41.4427 45.6354 41.4427 45.1927Z" fill="black"/>
<path d="M63.8645 44.3125H44.0052C43.4739 44.3125 43.1198 44.6667 43.1198 45.1927C43.1198 45.724 43.4739 46.0781 44.0052 46.0781H63.8645C64.3958 46.0781 64.75 45.724 64.75 45.1927C64.75 44.6667 64.3073 44.3125 63.8645 44.3125Z" fill="black"/>
<path d="M36.5 27.0989H42.7656C43.2968 27.0989 43.651 26.7447 43.651 26.2135C43.651 25.6874 43.2968 25.3333 42.7656 25.3333H36.5C35.9687 25.3333 35.6198 25.6874 35.6198 26.2135C35.6198 26.6562 35.9687 27.0989 36.5 27.0989Z" fill="black"/>
<path d="M23.6145 56.9324H32.8802C33.4114 56.9324 33.7656 56.5834 33.7656 56.0522C33.7656 55.5209 33.4114 55.1667 32.8802 55.1667H23.6145C23.0833 55.1667 22.7291 55.5209 22.7291 56.0522C22.7291 56.4949 23.0833 56.9324 23.6145 56.9324Z" fill="black"/>
<path d="M27.5833 61.5261C27.0573 61.5261 26.7031 61.8803 26.7031 62.4063C26.7031 62.9376 27.0573 63.2917 27.5833 63.2917H40.5625C41.0885 63.2917 41.4427 62.9376 41.4427 62.4063C41.4427 61.8803 41.0885 61.5261 40.5625 61.5261H27.5833Z" fill="black"/>
<path d="M58.302 61.5261H45.328C44.7968 61.5261 44.4426 61.8803 44.4426 62.4063C44.4426 62.9376 44.7968 63.2917 45.328 63.2917H58.302C58.8333 63.2917 59.1874 62.9376 59.1874 62.4063C59.1874 61.8803 58.8333 61.5261 58.302 61.5261Z" fill="black"/>
<path d="M43.651 56.0522C43.651 55.5209 43.2968 55.1667 42.7656 55.1667H36.5C35.9687 55.1667 35.6198 55.5209 35.6198 56.0522C35.6198 56.5834 35.9687 56.9324 36.5 56.9324H42.7656C43.2083 56.9324 43.651 56.4949 43.651 56.0522Z" fill="black"/>
<path d="M38.4426 79C33.8541 79 30.1458 82.7083 30.1458 87.3021C30.1458 91.8906 33.8541 95.599 38.4426 95.599C43.0312 95.599 46.7395 91.8906 46.7395 87.3021C46.828 82.7969 43.0312 79 38.4426 79ZM38.4426 93.9219C34.8228 93.9219 31.9114 91.0052 31.9114 87.3906C31.9114 83.7708 34.8228 80.8542 38.4426 80.8542C42.0624 80.8542 44.9739 83.7708 44.9739 87.3906C45.0624 91.0052 42.0624 93.9219 38.4426 93.9219Z" fill="black"/>
<path d="M55.6562 83.8594L52.125 82.7083C51.9479 82.0938 51.6823 81.474 51.3281 80.8542L53.0052 77.5885C53.1823 77.2396 53.0938 76.7969 52.8333 76.5312L49.2135 72.9115C48.9479 72.6458 48.5052 72.5573 48.151 72.7344L44.7969 74.4115C44.1823 74.1458 43.5625 73.8802 42.9427 73.6198L41.7969 70.0885C41.7083 69.7344 41.3542 69.4688 40.9167 69.4688H35.7083C35.3542 69.4688 35 69.7344 34.8229 70.0885L33.6771 73.6198C33.0573 73.8802 32.4427 74.0573 31.8229 74.4115L28.5573 72.7344C28.2031 72.5573 27.7604 72.6458 27.4948 72.9115L23.8802 76.5312C23.6146 76.7969 23.526 77.2396 23.7031 77.5885L25.3802 80.9427C25.1146 81.5625 24.849 82.1823 24.5833 82.7969L21.0521 83.9479C20.6979 84.0365 20.4375 84.3854 20.4375 84.8281V89.9479C20.4375 90.3021 20.6979 90.6563 21.0521 90.8333L24.5833 91.9792C24.7604 92.599 25.026 93.2135 25.3802 93.8333L23.7031 97.099C23.526 97.4531 23.6146 97.8906 23.8802 98.1562L27.4948 101.776C27.7604 102.042 28.2031 102.13 28.5573 101.953L31.9115 100.276C32.526 100.542 33.1458 100.807 33.7656 101.073L34.9115 104.599C35 104.953 35.3542 105.219 35.7969 105.219H40.9167C41.2656 105.219 41.6198 104.953 41.7969 104.599L42.9427 101.073C43.5625 100.896 44.1823 100.63 44.7969 100.276L48.0625 101.953C48.4167 102.13 48.8594 102.042 49.125 101.776L52.7448 98.1562C53.0052 97.8906 53.0938 97.4531 52.9167 97.099L51.2396 93.7448C51.5052 93.125 51.7708 92.5104 52.0365 91.8906L55.5677 90.7448C55.9219 90.6563 56.1875 90.3021 56.1875 89.8594V84.7396C56.276 84.2969 56.0104 83.9479 55.6562 83.8594ZM54.5104 89.2396L51.1562 90.3021C50.8906 90.3906 50.625 90.5677 50.5365 90.9167C50.2708 91.8021 49.9167 92.599 49.5625 93.3021C49.3906 93.5677 49.3906 93.8333 49.5625 94.099L51.1562 97.276L48.4167 100.01L45.3281 98.4219C45.0625 98.3333 44.7969 98.3333 44.5312 98.4219C43.7396 98.8646 42.9427 99.2188 42.151 99.3958C41.8854 99.4792 41.6198 99.6563 41.5312 99.9219L40.474 103.276H36.5885L35.5312 99.9219C35.4427 99.6563 35.1771 99.3958 34.9115 99.3073C34.1198 99.0417 33.2344 98.776 32.526 98.3333C32.2656 98.1563 32 98.1563 31.7344 98.3333L28.5573 99.9219L25.8177 97.1875L27.4062 94.099C27.5833 93.8333 27.4948 93.5677 27.4062 93.3021C26.9687 92.5104 26.6146 91.7135 26.4375 90.9167C26.349 90.6563 26.1719 90.3906 25.9062 90.3021L22.5521 89.2396V85.3594L25.9062 84.2969C26.1719 84.2083 26.4375 83.9479 26.526 83.6823C26.7917 82.8854 27.0573 82.0052 27.4948 81.2969C27.6719 81.0313 27.6719 80.7656 27.4948 80.5052L25.9062 77.3229L28.6458 74.5885L31.7344 76.1771C32 76.3542 32.2656 76.2656 32.526 76.1771C33.2344 75.7344 34.1198 75.3854 34.9115 75.2083C35.1771 75.1198 35.4427 74.9427 35.5312 74.6771L36.5885 71.3229H40.474L41.5312 74.6771C41.6198 74.9427 41.8854 75.2083 42.151 75.2969C42.9427 75.5625 43.8281 75.8229 44.5312 76.2656C44.7969 76.4427 45.0625 76.4427 45.3281 76.2656L48.5052 74.6771L51.2396 77.4115L49.651 80.5052C49.474 80.7656 49.5625 81.0313 49.651 81.2969C50.0938 82.0938 50.4479 82.8854 50.625 83.6823C50.7135 83.9479 50.8906 84.2083 51.1562 84.2969L54.5104 85.3594V89.2396Z" fill="black"/>
<path d="M111.62 75.5625C111.266 75.2969 110.651 75.3854 110.385 75.7344C110.12 76.0885 110.208 76.7083 110.563 76.9739L119.385 83.5937C110.208 90.5677 109.677 90.5677 110.385 91.4479C110.651 91.8021 111.266 91.8906 111.62 91.625L121.328 84.2969C121.594 84.1198 121.682 83.8594 121.682 83.5937C121.682 83.3281 121.594 83.0625 121.328 82.8854L111.62 75.5625Z" fill="black"/>
<path d="M87.6979 83.5937L96.526 76.9739C96.8802 76.7083 96.9687 76.0885 96.7031 75.7344C96.4375 75.3854 95.8177 75.2969 95.4635 75.5625L85.7552 82.8854C85.4895 83.0625 85.401 83.3281 85.401 83.5937C85.401 83.8594 85.4895 84.1198 85.7552 84.2969L95.4635 91.625C95.8177 91.8906 96.4375 91.8021 96.7031 91.4479C97.3177 90.5677 96.8802 90.5677 87.6979 83.5937Z" fill="black"/>
<path d="M109.677 68.8488C109.234 68.677 108.708 68.8488 108.531 69.2916C96.1719 98.8645 96.2605 97.802 97.4063 98.2447C97.849 98.4218 98.3802 98.2447 98.5573 97.802L110.208 69.9999C110.297 69.5572 110.12 69.1145 109.677 68.8488Z" fill="black"/>
</svg>
