<svg width="131" height="131" viewBox="0 0 131 131" fill="none" xmlns="http://www.w3.org/2000/svg">
<mask id="mask0_12_7" style="mask-type:luminance" maskUnits="userSpaceOnUse" x="0" y="0" width="131" height="131">
<path d="M0.296875 0.953125H130.297V130.953H0.296875V0.953125Z" fill="white"/>
</mask>
<g mask="url(#mask0_12_7)">
<path d="M130.297 0.953125H129.479L69.1979 61.2292L110.036 0.953125H108.63L68.1198 60.7552L93.3125 0.953125H92.0521L66.9844 60.4479L78.8438 0.953125H77.6562L65.875 60.0677V0.953125H64.7135V59.8542L53.3906 0.953125H52.2083L63.6146 60.2812L39.4635 0.953125H38.2083L62.599 60.8646L22.5938 0.953125H21.1979L61.5469 61.3802L1.11979 0.953125H0.296875V1.77083L60.5781 62.0521L0.296875 21.2188V22.6198L60.099 63.1302L0.296875 37.9375V39.1979L59.7917 64.2656L0.296875 52.4115V53.5938L59.4062 65.3698H0.296875V66.5312H59.2031L0.296875 77.8594V79.0417L59.625 67.6354L0.296875 91.7865V93.0417L60.2135 68.651L0.296875 108.656V110.052L60.724 69.7031L0.296875 130.13V130.953H1.11979L61.3958 70.6719L20.5625 130.953H21.9635L62.4792 71.151L37.2812 130.953H38.5417L63.6094 71.4583L51.7552 130.953H52.9375L64.7135 71.8385V130.953H65.875V72.0469L77.2031 130.953H78.3906L66.9792 71.6198L91.1354 130.953H92.3906L67.9948 71.0365L108 130.953H109.396L69.0469 70.526L129.479 130.953H130.297V130.13L70.0208 69.8542L130.297 110.688V109.286L70.4948 68.776L130.297 93.9688V92.7083L70.8021 67.6406L130.297 79.4948V78.3125L71.1875 66.5312H130.297V65.3698H71.3958L130.297 54.0417V52.8594L70.9688 64.2708L130.297 40.1146V38.8646L70.3854 63.2552L130.297 23.25V21.8542L69.8698 62.1979L130.297 1.77083V0.953125Z" fill="black"/>
</g>
</svg>
