<svg width="137" height="137" viewBox="0 0 137 137" fill="none" xmlns="http://www.w3.org/2000/svg">
<mask id="mask0_12_5" style="mask-type:luminance" maskUnits="userSpaceOnUse" x="0" y="0" width="137" height="137">
<path d="M0.4375 0.046875H136.438V136.047H0.4375V0.046875Z" fill="white"/>
</mask>
<g mask="url(#mask0_12_5)">
<path d="M136.438 68.0053C136.438 55.2449 132.911 42.823 126.109 32.0782V21.1615C126.109 21.1615 126.109 21.1615 126.109 21.0782C126.109 20.8282 125.943 20.573 125.776 20.4063L111.672 6.21883C111.589 6.1355 111.505 6.1355 111.505 6.05217H111.422C111.339 6.05217 111.255 6.05217 111.255 6.05217C111.255 6.05217 111.255 6.05217 111.167 6.05217H96.4792C87.6615 2.10425 78.2604 0.088623 68.5208 0.088623C62.0573 0.088623 55.7604 1.01571 49.6354 2.77612H31.9219C29.9896 2.77612 28.4792 4.28654 28.4792 6.21883V13.1042C10.9323 25.7813 0.4375 46.2657 0.4375 68.0053C0.4375 77.073 2.20312 85.8907 5.64062 94.198V110.906C5.64062 114.177 8.32813 116.865 11.6042 116.865C14.9635 116.865 17.8177 116.865 21.1719 116.865C34.2708 129.542 51.2292 136.005 68.4375 136.005C89.0052 136.005 108.818 126.854 122.167 109.729C126.781 108.135 129.724 103.771 129.724 99.0678V97.474C134.172 88.2397 136.438 78.3334 136.438 68.0053ZM95.724 115.188H90.7708V50.3751H95.724C95.974 50.3751 96.224 50.3751 96.4792 50.4636C96.5625 50.4636 96.6458 50.4636 96.7292 50.547C96.9792 50.6303 97.151 50.6303 97.3177 50.7136C97.401 50.7136 97.4844 50.797 97.4844 50.797C97.651 50.8803 97.8229 50.9636 97.9896 51.047C98.0729 51.1303 98.1562 51.1303 98.2396 51.2188C98.4062 51.3022 98.4948 51.3855 98.6615 51.5522C98.7448 51.6355 98.8281 51.7188 98.9115 51.7188C99.0781 51.8907 99.1615 51.974 99.25 52.1407C99.3333 52.224 99.3333 52.3074 99.4167 52.3074C99.5 52.474 99.6667 52.6459 99.75 52.8959V52.9792C99.8333 53.2292 99.9219 53.4845 100.005 53.7345C100.005 53.7345 100.005 53.7345 100.005 53.8178C100.089 54.073 100.089 54.323 100.089 54.6563V110.99C100.005 113.255 98.0729 115.188 95.724 115.188ZM68.4375 134.328C52.401 134.328 36.2865 128.537 23.6094 116.865C26.3802 116.865 79.1823 116.865 82.1198 116.865H113.266C101.26 127.865 85.3958 134.328 68.4375 134.328ZM35.6146 50.3751H81.2812V115.188H26.0417V50.3751H35.6146ZM70.875 48.698H66.9271V41.7292C66.9271 40.3022 65.75 39.0417 64.2396 39.0417H43.0833C41.6562 39.0417 40.4844 40.2188 40.4844 41.7292V48.698H36.5365V41.7292C36.5365 38.1199 39.474 35.099 43.1667 35.099H64.4062C68.0156 35.099 71.0417 38.0365 71.0417 41.7292V48.698H70.875ZM42.0781 48.698V41.7292C42.0781 41.224 42.4948 40.724 43 40.724H64.2396C64.7448 40.724 65.25 41.1407 65.25 41.7292V48.698H42.0781ZM89.0885 115.188H82.9635V50.3751H89.0885V115.188ZM99.8333 50.3751H118.641V51.6355H100.844L100.76 51.5522C100.677 51.4688 100.589 51.3022 100.505 51.2188C100.505 51.1303 100.422 51.1303 100.422 51.047C100.422 51.047 100.422 50.9636 100.339 50.9636C100.172 50.797 100.089 50.6303 99.8333 50.3751ZM101.682 57.0938H118.724V58.3542H101.682V57.0938ZM101.682 63.724H112.51V64.9845H101.682V63.724ZM101.682 66.6615H113.349C113.854 66.6615 114.193 66.3282 114.193 65.823V62.8855C114.193 62.3803 113.854 62.047 113.349 62.047H101.682V59.948H119.562C120.068 59.948 120.401 59.6095 120.401 59.1095V56.172C120.401 55.6668 120.068 55.3282 119.562 55.3282H101.682V54.6563C101.682 54.4063 101.682 54.2397 101.682 53.9897C101.682 53.9011 101.682 53.8178 101.599 53.7345C101.599 53.6511 101.599 53.4845 101.516 53.4011V53.3178H119.479C119.984 53.3178 120.318 52.9792 120.318 52.474V49.5365C120.318 49.0365 119.984 48.698 119.479 48.698H77.1667V7.64592H110.245V20.9949C110.245 21.5001 110.583 21.8334 111.083 21.8334H124.432V72.2032H101.599V66.6615H101.682ZM123.255 20.2397H111.922V8.90633L123.255 20.2397ZM30.1562 6.1355C30.1562 5.21362 30.9115 4.36987 31.9219 4.36987H58.7812C59.7083 4.36987 60.5469 5.13029 60.5469 6.1355V22.9272C60.5469 23.849 59.7917 24.6876 58.7812 24.6876H57.0208C56.5156 24.6876 56.1823 25.0261 56.1823 25.5261V29.8907L51.2292 24.9428C51.0625 24.7709 50.8906 24.6876 50.6406 24.6876H31.9219C30.9948 24.6876 30.1562 23.9324 30.1562 22.9272V6.1355ZM2.11458 68.0053C2.11458 47.1876 11.9375 27.5417 28.4792 15.0365V22.9272C28.4792 24.8542 29.9896 26.3699 31.9219 26.3699H50.3021L56.4323 32.4949C56.9375 33.0001 57.8594 32.6615 57.8594 31.9063V26.3699H58.7812C60.7135 26.3699 62.224 24.8542 62.224 22.9272V6.1355C62.224 4.20321 60.7135 2.69279 58.7812 2.69279H57.0208C60.7969 2.02092 64.6615 1.68758 68.4375 1.68758C76.5833 1.68758 84.474 3.11467 91.9427 5.96883H76.3281C75.8281 5.96883 75.4896 6.30216 75.4896 6.80737V48.698H72.5521V41.7292C72.5521 37.198 68.8594 33.4167 64.2396 33.4167H43.0833C38.5521 33.4167 34.776 37.1147 34.776 41.7292V48.698H11.6042C8.32813 48.698 5.64062 51.3855 5.64062 54.6563V89.4167C3.29167 82.5313 2.11458 75.3959 2.11458 68.0053ZM7.32292 110.906V54.6563C7.32292 52.3074 9.25521 50.3751 11.6042 50.3751H16.474V115.188H11.6042C9.25521 115.188 7.32292 113.255 7.32292 110.906ZM18.2344 50.3751H24.3646V115.188C20.9219 115.188 21.6771 115.188 18.2344 115.188V50.3751ZM115.031 115.188H99.8333C100.927 114.094 101.682 112.583 101.682 110.906V73.9688H125.354C125.859 73.9688 126.198 73.6303 126.198 73.1303V35.349C131.823 45.2553 134.844 56.5053 134.844 68.0053C134.844 76.823 133.161 85.3022 129.807 93.3595V90.3386C129.807 84.1251 124.771 79.0886 118.557 79.0886C112.344 79.0886 107.307 84.1251 107.307 90.3386V99.0678C107.307 105.615 112.932 110.906 119.646 110.318C118.135 111.995 116.625 113.677 115.031 115.188ZM128.042 99.0678C128.042 104.271 123.844 108.641 118.474 108.641C113.182 108.641 108.901 104.359 108.901 99.0678V90.3386C108.901 85.047 113.182 80.7657 118.474 80.7657C123.76 80.7657 128.042 85.047 128.042 90.3386V99.0678Z" fill="black"/>
</g>
<path d="M66.5053 121.99C66.5053 121.484 66.172 121.146 65.6667 121.146H45.349C44.849 121.146 44.5105 121.484 44.5105 121.99C44.5105 122.49 44.849 122.828 45.349 122.828H65.6667C66.0886 122.828 66.5053 122.406 66.5053 121.99Z" fill="black"/>
<path d="M73.1407 121.99C73.1407 121.484 72.8022 121.146 72.3022 121.146H68.9428C68.4376 121.146 68.1042 121.484 68.1042 121.99C68.1042 122.49 68.4376 122.828 68.9428 122.828H72.3022C72.7188 122.828 73.1407 122.406 73.1407 121.99Z" fill="black"/>
<path d="M75.1562 122.828H77.3385C77.8385 122.828 78.1771 122.49 78.1771 121.99C78.1771 121.484 77.8385 121.146 77.3385 121.146H75.1562C74.651 121.146 74.3125 121.484 74.3125 121.99C74.3125 122.406 74.651 122.828 75.1562 122.828Z" fill="black"/>
<path d="M91.5261 125.26H71.2084C70.7032 125.26 70.3699 125.599 70.3699 126.099C70.3699 126.604 70.7032 126.938 71.2084 126.938H91.5261C92.0261 126.938 92.3647 126.604 92.3647 126.099C92.3647 125.599 92.0261 125.26 91.5261 125.26Z" fill="black"/>
<path d="M67.9323 125.26H64.5781C64.0729 125.26 63.7344 125.599 63.7344 126.099C63.7344 126.604 64.0729 126.938 64.5781 126.938H67.9323C68.4375 126.938 68.776 126.604 68.776 126.099C68.776 125.599 68.4375 125.26 67.9323 125.26Z" fill="black"/>
<path d="M61.724 125.26H59.5417C59.0365 125.26 58.698 125.599 58.698 126.099C58.698 126.604 59.0365 126.938 59.5417 126.938H61.724C62.224 126.938 62.5626 126.604 62.5626 126.099C62.5626 125.599 62.224 125.26 61.724 125.26Z" fill="black"/>
<path d="M119.479 42.0676H82.1198C81.6198 42.0676 81.2812 42.401 81.2812 42.9062V45.8437C81.2812 46.3489 81.6198 46.6822 82.1198 46.6822H119.479C119.984 46.6822 120.318 46.3489 120.318 45.8437V42.9062C120.318 42.4843 119.984 42.0676 119.479 42.0676ZM118.641 45.0051H82.9635V43.7447H118.641V45.0051Z" fill="black"/>
<path d="M93.1197 37.5313C96.2239 37.5313 99.2499 36.2761 101.432 34.0886C103.614 31.9063 104.875 28.8855 104.875 25.7813C104.875 19.3178 99.5832 14.0261 93.1197 14.0261C86.6562 14.0261 81.3645 19.3178 81.3645 25.7813C81.2812 32.3282 86.5728 37.5313 93.1197 37.5313ZM93.1197 31.573C89.927 31.573 87.328 28.9688 87.328 25.7813C87.328 22.5886 89.927 19.9897 93.1197 19.9897C96.3072 19.9897 98.9114 22.5886 98.9114 25.7813C98.9114 27.2917 98.3228 28.8022 97.2343 29.8907C96.0572 30.9845 94.6301 31.573 93.1197 31.573ZM103.193 25.7813C103.193 28.2136 102.354 30.4792 100.844 32.3282L98.9947 30.4792C100.088 29.1355 100.588 27.5417 100.588 25.8647C100.588 22.0001 97.651 18.8959 93.9582 18.474V15.7917C99.078 16.1251 103.193 20.4897 103.193 25.7813ZM92.2812 15.7032V18.3907C88.8385 18.8126 86.0676 21.5001 85.7291 24.9428H83.0468C83.4635 20.073 87.328 16.1251 92.2812 15.7032ZM85.6457 26.6199C86.0676 30.3126 89.2551 33.2501 93.0364 33.2501C94.7135 33.2501 96.3957 32.6615 97.651 31.6563L99.4999 33.5053C97.651 35.0157 95.3853 35.8542 92.953 35.8542C87.6614 35.8542 83.2968 31.7397 82.8749 26.6199H85.6457Z" fill="black"/>
<path d="M53.6614 98.5625C62.3958 98.5625 69.4426 91.5104 69.4426 82.7812C69.4426 74.0521 62.3958 67 53.6614 67C44.9322 67 37.8801 74.0521 37.8801 82.7812C37.8801 91.5104 44.9322 98.5625 53.6614 98.5625ZM53.6614 68.6771C61.4687 68.6771 67.7655 74.974 67.7655 82.7812C67.7655 90.5885 61.4687 96.8854 53.6614 96.8854C45.8541 96.8854 39.5572 90.5885 39.5572 82.7812C39.5572 75.0573 45.8541 68.6771 53.6614 68.6771Z" fill="black"/>
<path d="M30.2396 87.5676L33.9323 89.2447C34.2708 90.2551 34.6875 91.177 35.1094 92.0989L33.6823 95.9635C33.599 96.2968 33.599 96.6353 33.849 96.8853L39.5573 102.594C39.8125 102.844 40.1458 102.932 40.4844 102.76L44.3438 101.333C45.2656 101.838 46.276 102.177 47.1979 102.51L48.875 106.203C49.0469 106.542 49.2969 106.708 49.6354 106.708H57.6927C58.026 106.708 58.3646 106.542 58.4479 106.203L60.125 102.51C61.1354 102.177 62.0573 101.755 62.9792 101.333L66.8438 102.76C67.1771 102.844 67.5156 102.844 67.7656 102.594L73.474 96.8853C73.7292 96.6353 73.8125 96.2968 73.6406 95.9635L72.2135 92.0989C72.7188 91.177 73.0573 90.1718 73.3906 89.2447L77.0833 87.5676C77.4219 87.401 77.5885 87.1458 77.5885 86.8124V78.7499C77.5885 78.4166 77.4219 78.0833 77.0833 77.9947L73.3906 76.3176C73.0573 75.3124 72.6354 74.3853 72.2135 73.4635L73.6406 69.6041C73.7292 69.2655 73.7292 68.9322 73.474 68.677L67.7656 62.9687C67.5156 62.7187 67.1771 62.6353 66.8438 62.802L62.9792 64.3124C62.0573 63.8072 61.0521 63.4739 60.125 63.1353L58.4479 59.4426C58.2812 59.1093 58.026 58.9426 57.6927 58.9426H49.6354C49.2969 58.9426 48.9635 59.1093 48.875 59.4426L47.1979 63.1353C46.1927 63.4739 45.2656 63.8905 44.3438 64.3124L40.4844 62.8853C40.1458 62.802 39.8125 62.802 39.5573 63.052L33.849 68.7603C33.599 69.0155 33.5156 69.3489 33.6823 69.6874L35.1094 73.5468C34.6042 74.4687 34.2708 75.4791 33.9323 76.401L30.2396 78.0833C29.9062 78.2499 29.7344 78.4999 29.7344 78.8385V86.8958C29.8229 87.1458 29.9896 87.4843 30.2396 87.5676ZM31.5 79.3385L35.1094 77.7447C35.3594 77.6614 35.5312 77.4947 35.5312 77.2395C35.8646 76.151 36.3698 74.9739 36.875 73.9687C36.9583 73.7135 37.0417 73.4635 36.9583 73.2968L35.5312 69.6041L40.3958 64.7343L44.0938 66.1614C44.3438 66.2447 44.5937 66.2447 44.7656 66.078C45.8542 65.4895 46.9479 65.0676 48.0365 64.7343C48.2917 64.651 48.4583 64.4791 48.5417 64.3124L50.1354 60.703H57.1042L58.6979 64.3124C58.7812 64.5624 58.9531 64.7343 59.2031 64.7343C60.2969 65.0676 61.4688 65.5728 62.4792 66.078C62.7292 66.1614 62.9792 66.2447 63.151 66.1614L66.8438 64.7343L71.7135 69.6041L70.2865 73.2968C70.2031 73.5468 70.2031 73.7968 70.3698 73.9687C70.9583 75.0572 71.375 76.151 71.7135 77.2395C71.7969 77.4947 71.9635 77.6614 72.1302 77.7447L75.7396 79.3385V86.3072L72.1302 87.901C71.8802 87.9895 71.7135 88.1562 71.7135 88.4062C71.375 89.4999 70.875 90.6718 70.3698 91.6822C70.2865 91.9322 70.2031 92.1822 70.2865 92.3541L71.7135 96.0468L66.8438 100.917L63.151 99.4895C62.8958 99.4062 62.6458 99.4062 62.4792 99.5728C61.3854 100.161 60.2969 100.578 59.2031 100.917C58.9531 101 58.7812 101.167 58.6979 101.333L57.1042 104.943H50.1354L48.5417 101.333C48.4583 101.083 48.2917 100.917 48.0365 100.917C46.9479 100.578 45.7708 100.078 44.7656 99.5728C44.5104 99.4895 44.2604 99.4062 44.0938 99.4895L40.3958 100.917L35.5312 96.0468L36.9583 92.3541C37.0417 92.0989 37.0417 91.8489 36.875 91.6822C36.2865 90.5885 35.8646 89.4999 35.5312 88.4062C35.4427 88.1562 35.276 87.9895 35.1094 87.901L31.5 86.3072V79.3385Z" fill="black"/>
<path d="M36.703 18.224C38.802 18.224 40.3958 16.5469 40.3958 14.4479C40.3958 12.349 38.7187 10.75 36.703 10.75C34.6041 10.75 32.927 12.4323 32.927 14.4479C32.927 16.6302 34.6874 18.224 36.703 18.224ZM36.703 12.4323C37.7968 12.4323 38.7187 13.3542 38.7187 14.4479C38.7187 15.6198 37.7968 16.5469 36.703 16.5469C35.5312 16.5469 34.6041 15.6198 34.6041 14.4479C34.6041 13.3542 35.5312 12.4323 36.703 12.4323Z" fill="black"/>
<path d="M45.349 18.224C47.448 18.224 49.047 16.5469 49.047 14.4479C49.047 12.349 47.3647 10.75 45.349 10.75C43.2553 10.75 41.573 12.4323 41.573 14.4479C41.6563 16.6302 43.3386 18.224 45.349 18.224ZM45.349 12.4323C46.4428 12.4323 47.3647 13.2708 47.3647 14.4479C47.3647 15.6198 46.4428 16.5469 45.349 16.5469C44.2605 16.5469 43.2553 15.6198 43.2553 14.4479C43.3386 13.3542 44.2605 12.4323 45.349 12.4323Z" fill="black"/>
<path d="M54 18.224C56.099 18.224 57.6927 16.5469 57.6927 14.4479C57.6927 12.349 56.0156 10.75 54 10.75C51.901 10.75 50.2188 12.4323 50.2188 14.4479C50.3021 16.6302 51.9844 18.224 54 18.224ZM54 12.4323C55.0885 12.4323 56.0156 13.3542 56.0156 14.4479C56.0156 15.6198 55.0885 16.5469 54 16.5469C52.8229 16.5469 51.901 15.6198 51.901 14.4479C51.9844 13.3542 52.9063 12.4323 54 12.4323Z" fill="black"/>
<path d="M118.474 83.2031C116.875 83.2031 115.536 84.5469 115.536 86.1406C115.536 87.7344 116.875 89.0781 118.474 89.0781C120.068 89.0781 121.411 87.7344 121.411 86.1406C121.411 84.5469 120.068 83.2031 118.474 83.2031ZM118.474 87.401C117.802 87.401 117.213 86.8125 117.213 86.1406C117.213 85.4687 117.802 84.8802 118.474 84.8802C119.146 84.8802 119.729 85.4687 119.729 86.1406C119.729 86.8125 119.146 87.401 118.474 87.401Z" fill="black"/>
</svg>
