<svg width="129" height="129" viewBox="0 0 129 129" fill="none" xmlns="http://www.w3.org/2000/svg">
<path d="M87.2501 9.19789C86.9688 9.19789 86.698 9.24997 86.4376 9.35935C86.172 9.46872 85.9428 9.62497 85.7449 9.82289C85.5417 10.0208 85.3907 10.2552 85.2813 10.5156C85.172 10.776 85.1199 11.0521 85.1199 11.3333C85.1199 11.6146 85.172 11.8906 85.2813 12.151C85.3907 12.4114 85.5417 12.6406 85.7449 12.8437C85.9428 13.0416 86.172 13.1979 86.4376 13.3073C86.698 13.4114 86.9688 13.4687 87.2501 13.4687C89.099 13.4583 90.9324 13.6302 92.7501 13.9843C94.5678 14.3385 96.3334 14.8646 98.047 15.5625C99.7605 16.2604 101.391 17.1198 102.932 18.1406C104.479 19.1614 105.912 20.3177 107.229 21.6198C107.432 21.8177 107.662 21.9687 107.927 22.0781C108.188 22.1823 108.458 22.2343 108.745 22.2343C109.026 22.2291 109.297 22.1718 109.557 22.0625C109.818 21.9531 110.047 21.7969 110.245 21.5937C110.443 21.3906 110.594 21.1562 110.698 20.8958C110.807 20.6354 110.859 20.3593 110.854 20.0781C110.854 19.7968 110.797 19.5208 110.688 19.2604C110.578 19 110.422 18.7708 110.219 18.5729C108.703 17.0781 107.057 15.7448 105.281 14.5729C103.505 13.401 101.63 12.4114 99.6615 11.6093C97.6928 10.8073 95.6615 10.1979 93.573 9.79164C91.4845 9.3906 89.3803 9.18747 87.2501 9.19789Z" fill="black"/>
<path d="M115.417 26.276C115.417 26.5625 115.365 26.8333 115.255 27.0938C115.146 27.3542 114.99 27.5885 114.792 27.7865C114.594 27.9896 114.359 28.1406 114.099 28.25C113.839 28.3594 113.568 28.4115 113.286 28.4115C113 28.4115 112.729 28.3594 112.469 28.25C112.208 28.1406 111.979 27.9896 111.776 27.7865C111.578 27.5885 111.422 27.3542 111.318 27.0938C111.208 26.8333 111.156 26.5625 111.156 26.276C111.156 25.9948 111.208 25.724 111.318 25.4583C111.422 25.1979 111.578 24.9687 111.776 24.7656C111.979 24.5677 112.208 24.4115 112.469 24.3073C112.729 24.1979 113 24.1406 113.286 24.1406C113.568 24.1406 113.839 24.1979 114.099 24.3073C114.359 24.4115 114.594 24.5677 114.792 24.7656C114.99 24.9687 115.146 25.1979 115.255 25.4583C115.365 25.724 115.417 25.9948 115.417 26.276Z" fill="black"/>
<path d="M42.9584 56.3021C42.9584 56.5833 42.9063 56.8594 42.797 57.1198C42.6876 57.3802 42.5365 57.6094 42.3334 57.8125C42.1355 58.0104 41.9063 58.1667 41.6407 58.276C41.3803 58.3802 41.1095 58.4375 40.8282 58.4375C40.547 58.4375 40.2709 58.3802 40.0105 58.276C39.7501 58.1667 39.5209 58.0104 39.3178 57.8125C39.1199 57.6094 38.9688 57.3802 38.8595 57.1198C38.7501 56.8594 38.698 56.5833 38.698 56.3021C38.698 56.0208 38.7501 55.7448 38.8595 55.4844C38.9688 55.2239 39.1199 54.9896 39.3178 54.7917C39.5209 54.5937 39.7501 54.4375 40.0105 54.3281C40.2709 54.2187 40.547 54.1667 40.8282 54.1667C41.1095 54.1667 41.3803 54.2187 41.6407 54.3281C41.9063 54.4375 42.1355 54.5937 42.3334 54.7917C42.5365 54.9896 42.6876 55.2239 42.797 55.4844C42.9063 55.7448 42.9584 56.0208 42.9584 56.3021Z" fill="black"/>
<path d="M60.0053 56.3021C60.0053 56.5833 59.9532 56.8594 59.8438 57.1198C59.7345 57.3802 59.5834 57.6094 59.3855 57.8125C59.1824 58.0104 58.9532 58.1667 58.6928 58.276C58.4324 58.3802 58.1563 58.4375 57.8751 58.4375C57.5938 58.4375 57.323 58.3802 57.0626 58.276C56.797 58.1667 56.5678 58.0104 56.3699 57.8125C56.172 57.6094 56.0157 57.3802 55.9063 57.1198C55.797 56.8594 55.7449 56.5833 55.7449 56.3021C55.7449 56.0208 55.797 55.7448 55.9063 55.4844C56.0157 55.2239 56.172 54.9896 56.3699 54.7917C56.5678 54.5937 56.797 54.4375 57.0626 54.3281C57.323 54.2187 57.5938 54.1667 57.8751 54.1667C58.1563 54.1667 58.4324 54.2187 58.6928 54.3281C58.9532 54.4375 59.1824 54.5937 59.3855 54.7917C59.5834 54.9896 59.7345 55.2239 59.8438 55.4844C59.9532 55.7448 60.0053 56.0208 60.0053 56.3021Z" fill="black"/>
<path d="M51.4844 56.3021C51.4844 56.5833 51.4271 56.8594 51.3229 57.1198C51.2135 57.3802 51.0573 57.6094 50.8594 57.8125C50.6563 58.0104 50.4271 58.1667 50.1667 58.276C49.9063 58.3802 49.6354 58.4375 49.3542 58.4375C49.0677 58.4375 48.7969 58.3802 48.5365 58.276C48.276 58.1667 48.0469 58.0104 47.8438 57.8125C47.6458 57.6094 47.4896 57.3802 47.3802 57.1198C47.276 56.8594 47.2188 56.5833 47.2188 56.3021C47.2188 56.0208 47.276 55.7448 47.3802 55.4844C47.4896 55.2239 47.6458 54.9896 47.8438 54.7917C48.0469 54.5937 48.276 54.4375 48.5365 54.3281C48.7969 54.2187 49.0677 54.1667 49.3542 54.1667C49.6354 54.1667 49.9063 54.2187 50.1667 54.3281C50.4271 54.4375 50.6563 54.5937 50.8594 54.7917C51.0573 54.9896 51.2135 55.2239 51.3229 55.4844C51.4271 55.7448 51.4844 56.0208 51.4844 56.3021Z" fill="black"/>
<path d="M89.8438 54.1667H68.5313C68.2501 54.1667 67.9792 54.2187 67.7136 54.3281C67.4532 54.4375 67.224 54.5937 67.0261 54.7917C66.823 54.9896 66.672 55.2239 66.5626 55.4844C66.4532 55.7448 66.4011 56.0208 66.4011 56.3021C66.4011 56.5833 66.4532 56.8594 66.5626 57.1198C66.672 57.3802 66.823 57.6094 67.0261 57.8125C67.224 58.0104 67.4532 58.1667 67.7136 58.276C67.9792 58.3802 68.2501 58.4375 68.5313 58.4375H89.8438C90.1251 58.4375 90.3959 58.3802 90.6563 58.276C90.922 58.1667 91.1511 58.0104 91.349 57.8125C91.5522 57.6094 91.7032 57.3802 91.8126 57.1198C91.922 56.8594 91.974 56.5833 91.974 56.3021C91.974 56.0208 91.922 55.7448 91.8126 55.4844C91.7032 55.2239 91.5522 54.9896 91.349 54.7917C91.1511 54.5937 90.922 54.4375 90.6563 54.3281C90.3959 54.2187 90.1251 54.1667 89.8438 54.1667Z" fill="black"/>
<mask id="mask0_1_5503" style="mask-type:luminance" maskUnits="userSpaceOnUse" x="0" y="0" width="129" height="129">
<path d="M0.255127 0.640625H128.255V128.641H0.255127V0.640625Z" fill="white"/>
</mask>
<g mask="url(#mask0_1_5503)">
<path d="M87.25 0.65625C82.6615 0.65625 78.1979 1.40104 73.8594 2.89063C69.5156 4.375 65.5313 6.52604 61.9063 9.33854C58.6667 8.20833 55.3281 7.64583 51.8958 7.64583C38.4583 7.64583 26.7083 16.3333 22.8333 28.9479C9.86979 31.0052 0.265625 42.0469 0.265625 55.1927C0.265625 63.849 4.49479 71.5365 10.9896 76.3958V115.948C10.9896 116.229 11.0469 116.505 11.1563 116.766C11.2604 117.026 11.4167 117.255 11.6146 117.458C11.8177 117.656 12.0469 117.813 12.3073 117.922C12.5677 118.031 12.8385 118.083 13.125 118.083H29.7448V122.219C29.7448 122.641 29.7865 123.057 29.8698 123.469C29.9479 123.88 30.0729 124.281 30.2344 124.672C30.3906 125.057 30.5885 125.427 30.8229 125.776C31.0573 126.13 31.3229 126.453 31.6198 126.75C31.9167 127.047 32.2396 127.313 32.5885 127.547C32.9375 127.781 33.3021 127.974 33.6927 128.135C34.0781 128.297 34.4792 128.422 34.8906 128.5C35.3021 128.583 35.7188 128.625 36.1406 128.625H96.6615C97.0833 128.625 97.5 128.583 97.9115 128.5C98.3229 128.422 98.7188 128.297 99.1094 128.135C99.4948 127.974 99.8646 127.781 100.214 127.547C100.563 127.313 100.885 127.047 101.182 126.75C101.479 126.453 101.745 126.13 101.979 125.776C102.214 125.427 102.406 125.057 102.568 124.672C102.729 124.281 102.849 123.88 102.932 123.469C103.016 123.057 103.057 122.641 103.057 122.219V118.083H115.417C115.698 118.083 115.969 118.031 116.229 117.922C116.495 117.813 116.724 117.656 116.922 117.458C117.125 117.255 117.276 117.026 117.385 116.766C117.495 116.505 117.547 116.229 117.547 115.948V101.005C117.547 100.719 117.495 100.448 117.385 100.188C117.276 99.9271 117.125 99.6927 116.922 99.4948C116.724 99.2917 116.495 99.1406 116.229 99.0313C115.969 98.9219 115.698 98.8698 115.417 98.8698C115.135 98.8698 114.859 98.9219 114.599 99.0313C114.339 99.1406 114.109 99.2917 113.911 99.4948C113.708 99.6927 113.557 99.9271 113.448 100.188C113.339 100.448 113.286 100.719 113.286 101.005V113.813H103.057V109.677C103.057 109.255 103.016 108.839 102.932 108.427C102.849 108.016 102.729 107.615 102.568 107.224C102.406 106.839 102.214 106.469 101.979 106.12C101.745 105.771 101.479 105.443 101.182 105.146C100.885 104.849 100.563 104.583 100.214 104.349C99.8646 104.12 99.4948 103.922 99.1094 103.76C98.7188 103.599 98.3229 103.479 97.9115 103.396C97.5 103.313 97.0833 103.271 96.6615 103.271H94.6354V98.7344H96.6615C97.0833 98.7344 97.5 98.6927 97.9115 98.6094C98.3229 98.5313 98.7188 98.4063 99.1094 98.2448C99.4948 98.0885 99.8646 97.8906 100.214 97.6563C100.563 97.4219 100.885 97.1563 101.182 96.8594C101.479 96.5625 101.745 96.2396 101.979 95.8906C102.214 95.5365 102.406 95.1719 102.568 94.7813C102.729 94.3906 102.849 93.9896 102.932 93.5781C103.016 93.1667 103.057 92.75 103.057 92.3281V79.7865C103.052 79.401 103.016 79.0156 102.943 78.6354C106.693 77.1042 110.141 75.0573 113.286 72.5V83.9219C113.286 84.2083 113.339 84.4792 113.448 84.7396C113.557 85 113.708 85.2344 113.911 85.4323C114.109 85.6354 114.339 85.7865 114.599 85.8958C114.859 86.0052 115.135 86.0573 115.417 86.0573C115.698 86.0573 115.969 86.0052 116.229 85.8958C116.495 85.7865 116.724 85.6354 116.922 85.4323C117.125 85.2344 117.276 85 117.385 84.7396C117.495 84.4792 117.547 84.2083 117.547 83.9219V68.474C119.25 66.6406 120.766 64.6615 122.099 62.5417C123.432 60.4219 124.557 58.1927 125.474 55.8646C126.396 53.5313 127.089 51.1354 127.557 48.6719C128.026 46.2135 128.266 43.7292 128.271 41.224C128.271 18.8542 109.87 0.65625 87.25 0.65625ZM29.7448 109.677V113.813H15.2552V79.0052C19.0052 80.8594 22.9688 81.7865 27.1458 81.7865H29.7448V92.3281C29.7448 92.75 29.7865 93.1667 29.8698 93.5781C29.9479 93.9896 30.0729 94.3906 30.2344 94.7813C30.3906 95.1719 30.5885 95.5365 30.8229 95.8906C31.0573 96.2396 31.3229 96.5625 31.6198 96.8594C31.9167 97.1563 32.2396 97.4219 32.5885 97.6563C32.9375 97.8906 33.3021 98.0885 33.6927 98.2448C34.0781 98.4063 34.4792 98.5313 34.8906 98.6094C35.3021 98.6927 35.7188 98.7344 36.1406 98.7344H38.1615V103.271H36.1406C35.7188 103.271 35.3021 103.313 34.8906 103.396C34.4792 103.479 34.0781 103.599 33.6927 103.76C33.3021 103.922 32.9375 104.12 32.5885 104.349C32.2396 104.583 31.9167 104.849 31.6198 105.146C31.3229 105.443 31.0573 105.771 30.8229 106.12C30.5885 106.469 30.3906 106.839 30.2344 107.224C30.0729 107.615 29.9479 108.016 29.8698 108.427C29.7865 108.839 29.7448 109.255 29.7448 109.677ZM96.6615 107.542C96.9427 107.542 97.2188 107.594 97.4792 107.703C97.7396 107.813 97.9688 107.969 98.1667 108.167C98.3698 108.365 98.5208 108.599 98.6302 108.859C98.7396 109.12 98.7917 109.396 98.7917 109.677V122.219C98.7917 122.505 98.7396 122.776 98.6302 123.036C98.5208 123.297 98.3698 123.531 98.1667 123.729C97.9688 123.932 97.7396 124.083 97.4792 124.193C97.2188 124.302 96.9427 124.354 96.6615 124.354H36.1406C35.8542 124.354 35.5833 124.302 35.3229 124.193C35.0625 124.083 34.8333 123.932 34.6302 123.729C34.4323 123.531 34.276 123.297 34.1719 123.036C34.0625 122.776 34.0052 122.505 34.0052 122.219V109.677C34.0052 109.396 34.0625 109.12 34.1719 108.859C34.276 108.599 34.4323 108.365 34.6302 108.167C34.8333 107.969 35.0625 107.813 35.3229 107.703C35.5833 107.594 35.8542 107.542 36.1406 107.542H96.6615ZM42.4271 103.271V99H90.375V103.271H42.4271ZM98.7917 92.3281C98.7917 92.6146 98.7396 92.8854 98.6302 93.1458C98.5208 93.4063 98.3698 93.6406 98.1667 93.8385C97.9688 94.0417 97.7396 94.1927 97.4792 94.3021C97.2188 94.4115 96.9427 94.4635 96.6615 94.4635H36.1406C35.8542 94.4635 35.5833 94.4115 35.3229 94.3021C35.0625 94.1927 34.8333 94.0417 34.6302 93.8385C34.4323 93.6406 34.276 93.4063 34.1719 93.1458C34.0625 92.8854 34.0052 92.6146 34.0052 92.3281V79.7865C34.0156 79.5052 34.0729 79.2344 34.1823 78.9792C34.2917 78.7188 34.4479 78.4896 34.6458 78.2917C34.8438 78.0938 35.0729 77.9375 35.3333 77.8281C35.5885 77.7188 35.8594 77.6563 36.1406 77.651H96.6615C96.9427 77.6563 97.2136 77.7135 97.474 77.8229C97.7292 77.9323 97.9583 78.0885 98.1563 78.2865C98.3594 78.4844 98.5104 78.7135 98.6198 78.974C98.7292 79.2344 98.7865 79.5052 98.7917 79.7865V92.3281ZM42.4271 69.1094H90.375V73.3802H42.4271V69.1094ZM36.1406 64.5729C35.8542 64.5729 35.5833 64.5208 35.3229 64.4115C35.0625 64.3021 34.8333 64.151 34.6302 63.9479C34.4323 63.75 34.276 63.5156 34.1719 63.2552C34.0625 62.9948 34.0052 62.724 34.0052 62.4375V49.8958C34.0052 49.6146 34.0625 49.3385 34.1719 49.0781C34.276 48.8177 34.4323 48.5885 34.6302 48.3854C34.8333 48.1875 35.0625 48.0313 35.3229 47.9219C35.5833 47.8177 35.8542 47.7604 36.1406 47.7604H96.6615C96.9427 47.7604 97.2188 47.8177 97.4792 47.9219C97.7396 48.0313 97.9688 48.1875 98.1667 48.3854C98.3698 48.5885 98.5208 48.8177 98.6302 49.0781C98.7396 49.3385 98.7917 49.6146 98.7917 49.8958V62.4375C98.7917 62.724 98.7396 62.9948 98.6302 63.2552C98.5208 63.5156 98.3698 63.75 98.1667 63.9479C97.9688 64.151 97.7396 64.3021 97.4792 64.4115C97.2188 64.5208 96.9427 64.5729 96.6615 64.5729H36.1406ZM100.818 74.9167C99.6094 73.9219 98.224 73.4115 96.6615 73.3802H94.6354V68.8438H96.6615C97.0833 68.8438 97.5 68.8021 97.9115 68.724C98.3229 68.6406 98.7188 68.5156 99.1094 68.3594C99.4948 68.1979 99.8646 68 100.214 67.7656C100.563 67.5313 100.885 67.2656 101.182 66.9688C101.479 66.6719 101.745 66.349 101.979 66C102.214 65.6458 102.406 65.2813 102.568 64.8906C102.729 64.5 102.849 64.1042 102.932 63.6875C103.016 63.276 103.057 62.8594 103.057 62.4375V49.8958C103.057 49.474 103.016 49.0573 102.932 48.6458C102.849 48.2344 102.729 47.8333 102.568 47.4427C102.406 47.0573 102.214 46.6875 101.979 46.3385C101.745 45.9896 101.479 45.6667 101.182 45.3698C100.885 45.0677 100.563 44.8021 100.214 44.5729C99.8646 44.3385 99.4948 44.1406 99.1094 43.9792C98.7188 43.8177 98.3229 43.6979 97.9115 43.6146C97.5 43.5313 97.0833 43.4896 96.6615 43.4896H36.1406C35.7188 43.4896 35.3021 43.5313 34.8906 43.6146C34.4792 43.6979 34.0781 43.8177 33.6927 43.9792C33.3021 44.1406 32.9375 44.3385 32.5885 44.5729C32.2396 44.8021 31.9167 45.0677 31.6198 45.3698C31.3229 45.6667 31.0573 45.9896 30.8229 46.3385C30.5885 46.6875 30.3906 47.0573 30.2344 47.4427C30.0729 47.8333 29.9479 48.2344 29.8698 48.6458C29.7865 49.0573 29.7448 49.474 29.7448 49.8958V62.4375C29.7448 62.8594 29.7865 63.276 29.8698 63.6875C29.9479 64.1042 30.0729 64.5 30.2344 64.8906C30.3906 65.2813 30.5885 65.6458 30.8229 66C31.0573 66.349 31.3229 66.6719 31.6198 66.9688C31.9167 67.2656 32.2396 67.5313 32.5885 67.7656C32.9375 68 33.3021 68.1979 33.6927 68.3594C34.0781 68.5156 34.4792 68.6406 34.8906 68.724C35.3021 68.8021 35.7188 68.8438 36.1406 68.8438H38.1615V73.3802H36.1406C35.4896 73.3854 34.8594 73.4896 34.2448 73.6823C33.625 73.8802 33.0521 74.1615 32.5208 74.5313C31.9896 74.901 31.5208 75.3385 31.125 75.849C30.724 76.3594 30.4063 76.9115 30.1719 77.5156H27.1458C14.6771 77.5156 4.53125 67.5052 4.53125 55.1979C4.53125 43.7604 13.2083 34.2188 24.724 33.0104C25.1667 32.9635 25.5573 32.7917 25.8958 32.5C26.2344 32.2031 26.4531 31.8385 26.5625 31.4063C29.4948 19.9323 39.9115 11.9063 51.8958 11.9063C55.2188 11.9063 58.4323 12.5156 61.526 13.7344C61.8854 13.875 62.2552 13.9167 62.6354 13.8542C63.0208 13.7917 63.3594 13.6406 63.6563 13.3906C66.9792 10.6563 70.6667 8.55729 74.7188 7.10417C78.7708 5.65104 82.9479 4.92708 87.25 4.92708C107.516 4.92708 124.01 21.2083 124.01 41.224C124.01 56.0833 114.75 69.4531 100.818 74.9167Z" fill="black"/>
</g>
<path d="M42.9584 86.1927C42.9584 86.4739 42.9063 86.7448 42.797 87.0104C42.6876 87.2708 42.5365 87.5 42.3334 87.7031C42.1355 87.901 41.9063 88.0573 41.6407 88.1614C41.3803 88.2708 41.1095 88.3281 40.8282 88.3281C40.547 88.3281 40.2709 88.2708 40.0105 88.1614C39.7501 88.0573 39.5209 87.901 39.3178 87.7031C39.1199 87.5 38.9688 87.2708 38.8595 87.0104C38.7501 86.7448 38.698 86.4739 38.698 86.1927C38.698 85.9062 38.7501 85.6354 38.8595 85.375C38.9688 85.1146 39.1199 84.8802 39.3178 84.6823C39.5209 84.4792 39.7501 84.3281 40.0105 84.2187C40.2709 84.1094 40.547 84.0573 40.8282 84.0573C41.1095 84.0573 41.3803 84.1094 41.6407 84.2187C41.9063 84.3281 42.1355 84.4792 42.3334 84.6823C42.5365 84.8802 42.6876 85.1146 42.797 85.375C42.9063 85.6354 42.9584 85.9062 42.9584 86.1927Z" fill="black"/>
<path d="M60.0053 86.1927C60.0053 86.4739 59.9532 86.7448 59.8438 87.0104C59.7345 87.2708 59.5834 87.5 59.3855 87.7031C59.1824 87.901 58.9532 88.0573 58.6928 88.1614C58.4324 88.2708 58.1563 88.3281 57.8751 88.3281C57.5938 88.3281 57.323 88.2708 57.0626 88.1614C56.797 88.0573 56.5678 87.901 56.3699 87.7031C56.172 87.5 56.0157 87.2708 55.9063 87.0104C55.797 86.7448 55.7449 86.4739 55.7449 86.1927C55.7449 85.9062 55.797 85.6354 55.9063 85.375C56.0157 85.1146 56.172 84.8802 56.3699 84.6823C56.5678 84.4792 56.797 84.3281 57.0626 84.2187C57.323 84.1094 57.5938 84.0573 57.8751 84.0573C58.1563 84.0573 58.4324 84.1094 58.6928 84.2187C58.9532 84.3281 59.1824 84.4792 59.3855 84.6823C59.5834 84.8802 59.7345 85.1146 59.8438 85.375C59.9532 85.6354 60.0053 85.9062 60.0053 86.1927Z" fill="black"/>
<path d="M51.4844 86.1927C51.4844 86.4739 51.4271 86.7448 51.3229 87.0104C51.2135 87.2708 51.0573 87.5 50.8594 87.7031C50.6563 87.901 50.4271 88.0573 50.1667 88.1614C49.9063 88.2708 49.6354 88.3281 49.3542 88.3281C49.0677 88.3281 48.7969 88.2708 48.5365 88.1614C48.276 88.0573 48.0469 87.901 47.8438 87.7031C47.6458 87.5 47.4896 87.2708 47.3802 87.0104C47.276 86.7448 47.2188 86.4739 47.2188 86.1927C47.2188 85.9062 47.276 85.6354 47.3802 85.375C47.4896 85.1146 47.6458 84.8802 47.8438 84.6823C48.0469 84.4792 48.276 84.3281 48.5365 84.2187C48.7969 84.1094 49.0677 84.0573 49.3542 84.0573C49.6354 84.0573 49.9063 84.1094 50.1667 84.2187C50.4271 84.3281 50.6563 84.4792 50.8594 84.6823C51.0573 84.8802 51.2135 85.1146 51.3229 85.375C51.4271 85.6354 51.4844 85.9062 51.4844 86.1927Z" fill="black"/>
<path d="M89.8438 84.0573H68.5313C68.2501 84.0573 67.9792 84.1094 67.7136 84.2187C67.4532 84.3281 67.224 84.4792 67.0261 84.6823C66.823 84.8802 66.672 85.1146 66.5626 85.375C66.4532 85.6354 66.4011 85.9062 66.4011 86.1927C66.4011 86.4739 66.4532 86.7448 66.5626 87.0104C66.672 87.2708 66.823 87.5 67.0261 87.7031C67.224 87.901 67.4532 88.0573 67.7136 88.1614C67.9792 88.2708 68.2501 88.3281 68.5313 88.3281H89.8438C90.1251 88.3281 90.3959 88.2708 90.6563 88.1614C90.922 88.0573 91.1511 87.901 91.349 87.7031C91.5522 87.5 91.7032 87.2708 91.8126 87.0104C91.922 86.7448 91.974 86.4739 91.974 86.1927C91.974 85.9062 91.922 85.6354 91.8126 85.375C91.7032 85.1146 91.5522 84.8802 91.349 84.6823C91.1511 84.4792 90.922 84.3281 90.6563 84.2187C90.3959 84.1094 90.1251 84.0573 89.8438 84.0573Z" fill="black"/>
<path d="M42.9584 116.083C42.9584 116.365 42.9063 116.635 42.797 116.901C42.6876 117.161 42.5365 117.391 42.3334 117.594C42.1355 117.792 41.9063 117.948 41.6407 118.052C41.3803 118.161 41.1095 118.219 40.8282 118.219C40.547 118.219 40.2709 118.161 40.0105 118.052C39.7501 117.948 39.5209 117.792 39.3178 117.594C39.1199 117.391 38.9688 117.161 38.8595 116.901C38.7501 116.635 38.698 116.365 38.698 116.083C38.698 115.797 38.7501 115.526 38.8595 115.266C38.9688 115.005 39.1199 114.771 39.3178 114.573C39.5209 114.37 39.7501 114.219 40.0105 114.109C40.2709 114 40.547 113.948 40.8282 113.948C41.1095 113.948 41.3803 114 41.6407 114.109C41.9063 114.219 42.1355 114.37 42.3334 114.573C42.5365 114.771 42.6876 115.005 42.797 115.266C42.9063 115.526 42.9584 115.797 42.9584 116.083Z" fill="black"/>
<path d="M60.0053 116.083C60.0053 116.365 59.9532 116.635 59.8438 116.901C59.7345 117.161 59.5834 117.391 59.3855 117.594C59.1824 117.792 58.9532 117.948 58.6928 118.052C58.4324 118.161 58.1563 118.219 57.8751 118.219C57.5938 118.219 57.323 118.161 57.0626 118.052C56.797 117.948 56.5678 117.792 56.3699 117.594C56.172 117.391 56.0157 117.161 55.9063 116.901C55.797 116.635 55.7449 116.365 55.7449 116.083C55.7449 115.797 55.797 115.526 55.9063 115.266C56.0157 115.005 56.172 114.771 56.3699 114.573C56.5678 114.37 56.797 114.219 57.0626 114.109C57.323 114 57.5938 113.948 57.8751 113.948C58.1563 113.948 58.4324 114 58.6928 114.109C58.9532 114.219 59.1824 114.37 59.3855 114.573C59.5834 114.771 59.7345 115.005 59.8438 115.266C59.9532 115.526 60.0053 115.797 60.0053 116.083Z" fill="black"/>
<path d="M51.4844 116.083C51.4844 116.365 51.4271 116.635 51.3229 116.901C51.2135 117.161 51.0573 117.391 50.8594 117.594C50.6563 117.792 50.4271 117.948 50.1667 118.052C49.9063 118.161 49.6354 118.219 49.3542 118.219C49.0677 118.219 48.7969 118.161 48.5365 118.052C48.276 117.948 48.0469 117.792 47.8438 117.594C47.6458 117.391 47.4896 117.161 47.3802 116.901C47.276 116.635 47.2188 116.365 47.2188 116.083C47.2188 115.797 47.276 115.526 47.3802 115.266C47.4896 115.005 47.6458 114.771 47.8438 114.573C48.0469 114.37 48.276 114.219 48.5365 114.109C48.7969 114 49.0677 113.948 49.3542 113.948C49.6354 113.948 49.9063 114 50.1667 114.109C50.4271 114.219 50.6563 114.37 50.8594 114.573C51.0573 114.771 51.2135 115.005 51.3229 115.266C51.4271 115.526 51.4844 115.797 51.4844 116.083Z" fill="black"/>
<path d="M68.5313 118.219H89.8438C90.1251 118.219 90.3959 118.161 90.6563 118.052C90.922 117.948 91.1511 117.792 91.349 117.594C91.5522 117.391 91.7032 117.161 91.8126 116.901C91.922 116.635 91.974 116.365 91.974 116.083C91.974 115.797 91.922 115.526 91.8126 115.266C91.7032 115.005 91.5522 114.771 91.349 114.573C91.1511 114.37 90.922 114.219 90.6563 114.109C90.3959 114 90.1251 113.948 89.8438 113.948H68.5313C68.2501 113.948 67.9792 114 67.7136 114.109C67.4532 114.219 67.224 114.37 67.0261 114.573C66.823 114.771 66.672 115.005 66.5626 115.266C66.4532 115.526 66.4011 115.797 66.4011 116.083C66.4011 116.365 66.4532 116.635 66.5626 116.901C66.672 117.161 66.823 117.391 67.0261 117.594C67.224 117.792 67.4532 117.948 67.7136 118.052C67.9792 118.161 68.2501 118.219 68.5313 118.219Z" fill="black"/>
<path d="M38.6979 22.0052C38.4115 22.0052 38.1406 22.0625 37.8802 22.1719C37.6198 22.2812 37.3906 22.4323 37.1875 22.6354C36.9896 22.8333 36.8333 23.0625 36.7292 23.3281C36.6198 23.5885 36.5625 23.8594 36.5625 24.1406V36.9531C36.5625 37.2344 36.6198 37.5104 36.7292 37.7708C36.8333 38.0312 36.9896 38.2604 37.1875 38.4635C37.3906 38.6614 37.6198 38.8177 37.8802 38.9271C38.1406 39.0312 38.4115 39.0885 38.6979 39.0885C38.9792 39.0885 39.25 39.0312 39.5104 38.9271C39.7708 38.8177 40.0052 38.6614 40.2031 38.4635C40.401 38.2604 40.5573 38.0312 40.6667 37.7708C40.7708 37.5104 40.8281 37.2344 40.8281 36.9531V24.1406C40.8281 23.8594 40.7708 23.5885 40.6667 23.3281C40.5573 23.0625 40.401 22.8333 40.2031 22.6354C40.0052 22.4323 39.7708 22.276 39.5104 22.1719C39.25 22.0625 38.9792 22.0052 38.6979 22.0052Z" fill="black"/>
<path d="M55.7449 22.0052C55.323 22.0052 54.9115 22.0469 54.5001 22.1302C54.0834 22.2135 53.6876 22.3333 53.297 22.4948C52.9115 22.6562 52.5417 22.8541 52.1928 23.0885C51.8438 23.3229 51.5209 23.5885 51.224 23.8854C50.9272 24.1823 50.6615 24.5052 50.4272 24.8541C50.198 25.2031 50.0001 25.5729 49.8386 25.9635C49.6772 26.3489 49.5574 26.75 49.474 27.1614C49.3907 27.5781 49.3542 27.9948 49.3542 28.4114V32.6823C49.3542 33.1041 49.3907 33.5208 49.474 33.9323C49.5574 34.3437 49.6772 34.7448 49.8386 35.1354C50.0001 35.5208 50.198 35.8906 50.4272 36.2396C50.6615 36.5885 50.9272 36.9166 51.224 37.2135C51.5209 37.5104 51.8438 37.776 52.1928 38.0104C52.5417 38.2396 52.9115 38.4375 53.297 38.5989C53.6876 38.7604 54.0834 38.8802 54.5001 38.9635C54.9115 39.0469 55.323 39.0885 55.7449 39.0885C56.1667 39.0885 56.5782 39.0469 56.9949 38.9635C57.4063 38.8802 57.8022 38.7604 58.1928 38.5989C58.5782 38.4375 58.948 38.2396 59.297 38.0104C59.6459 37.776 59.9688 37.5104 60.2657 37.2135C60.5626 36.9166 60.8282 36.5885 61.0626 36.2396C61.2917 35.8906 61.4897 35.5208 61.6511 35.1354C61.8126 34.7448 61.9324 34.3437 62.0157 33.9323C62.099 33.5208 62.1407 33.1041 62.1407 32.6823V28.4114C62.1407 27.9948 62.099 27.5781 62.0157 27.1614C61.9324 26.75 61.8126 26.3489 61.6511 25.9635C61.4897 25.5729 61.2917 25.2031 61.0626 24.8541C60.8282 24.5052 60.5626 24.1823 60.2657 23.8854C59.9688 23.5885 59.6459 23.3229 59.297 23.0885C58.948 22.8541 58.5782 22.6562 58.1928 22.4948C57.8022 22.3333 57.4063 22.2135 56.9949 22.1302C56.5782 22.0469 56.1667 22.0052 55.7449 22.0052ZM57.8751 32.6823C57.8751 32.9635 57.823 33.2396 57.7136 33.5C57.6042 33.7604 57.4532 33.9948 57.2501 34.1927C57.0522 34.3906 56.823 34.5469 56.5626 34.6562C56.297 34.7656 56.0261 34.8177 55.7449 34.8177C55.4636 34.8177 55.1928 34.7656 54.9272 34.6562C54.6667 34.5469 54.4376 34.3906 54.2397 34.1927C54.0365 33.9948 53.8855 33.7604 53.7761 33.5C53.6667 33.2396 53.6147 32.9635 53.6147 32.6823V28.4114C53.6147 28.1302 53.6667 27.8594 53.7761 27.5937C53.8855 27.3333 54.0365 27.1041 54.2397 26.901C54.4376 26.7031 54.6667 26.5469 54.9272 26.4427C55.1928 26.3333 55.4636 26.276 55.7449 26.276C56.0261 26.276 56.297 26.3333 56.5626 26.4427C56.823 26.5469 57.0522 26.7031 57.2501 26.901C57.4532 27.1041 57.6042 27.3333 57.7136 27.5937C57.823 27.8594 57.8751 28.1302 57.8751 28.4114V32.6823Z" fill="black"/>
<path d="M72.7916 22.0052C72.5103 22.0052 72.2395 22.0625 71.9791 22.1719C71.7187 22.2812 71.4843 22.4323 71.2864 22.6354C71.0885 22.8333 70.9322 23.0625 70.8228 23.3281C70.7187 23.5885 70.6614 23.8594 70.6614 24.1406V36.9531C70.6614 37.2344 70.7187 37.5104 70.8228 37.7708C70.9322 38.0312 71.0885 38.2604 71.2864 38.4635C71.4843 38.6614 71.7187 38.8177 71.9791 38.9271C72.2395 39.0312 72.5103 39.0885 72.7916 39.0885C73.078 39.0885 73.3489 39.0312 73.6093 38.9271C73.8697 38.8177 74.0989 38.6614 74.302 38.4635C74.4999 38.2604 74.6562 38.0312 74.7603 37.7708C74.8697 37.5104 74.927 37.2344 74.927 36.9531V24.1406C74.927 23.8594 74.8697 23.5885 74.7603 23.3281C74.6562 23.0625 74.4999 22.8333 74.302 22.6354C74.0989 22.4323 73.8697 22.276 73.6093 22.1719C73.3489 22.0625 73.078 22.0052 72.7916 22.0052Z" fill="black"/>
<path d="M89.8438 22.0052C89.422 22.0052 89.0053 22.0469 88.5938 22.1302C88.1824 22.2135 87.7865 22.3333 87.3959 22.4948C87.0105 22.6562 86.6407 22.8541 86.2917 23.0885C85.9428 23.3229 85.6199 23.5885 85.323 23.8854C85.0261 24.1823 84.7605 24.5052 84.5261 24.8541C84.2917 25.2031 84.099 25.5729 83.9376 25.9635C83.7761 26.3489 83.6563 26.75 83.573 27.1614C83.4897 27.5781 83.448 27.9948 83.448 28.4114V32.6823C83.448 33.1041 83.4897 33.5208 83.573 33.9323C83.6563 34.3437 83.7761 34.7448 83.9376 35.1354C84.099 35.5208 84.2917 35.8906 84.5261 36.2396C84.7605 36.5885 85.0261 36.9166 85.323 37.2135C85.6199 37.5104 85.9428 37.776 86.2917 38.0104C86.6407 38.2396 87.0105 38.4375 87.3959 38.5989C87.7865 38.7604 88.1824 38.8802 88.5938 38.9635C89.0053 39.0469 89.422 39.0885 89.8438 39.0885C90.2605 39.0885 90.6772 39.0469 91.0886 38.9635C91.5001 38.8802 91.9011 38.7604 92.2917 38.5989C92.6772 38.4375 93.047 38.2396 93.3959 38.0104C93.7449 37.776 94.0678 37.5104 94.3647 37.2135C94.6615 36.9166 94.9272 36.5885 95.1563 36.2396C95.3907 35.8906 95.5886 35.5208 95.7501 35.1354C95.9115 34.7448 96.0313 34.3437 96.1147 33.9323C96.1928 33.5208 96.2345 33.1041 96.2345 32.6823V28.4114C96.2345 27.9948 96.1928 27.5781 96.1147 27.1614C96.0313 26.75 95.9115 26.3489 95.7501 25.9635C95.5886 25.5729 95.3907 25.2031 95.1563 24.8541C94.9272 24.5052 94.6615 24.1823 94.3647 23.8854C94.0678 23.5885 93.7449 23.3229 93.3959 23.0885C93.047 22.8541 92.6772 22.6562 92.2917 22.4948C91.9011 22.3333 91.5001 22.2135 91.0886 22.1302C90.6772 22.0469 90.2605 22.0052 89.8438 22.0052ZM91.974 32.6823C91.974 32.9635 91.922 33.2396 91.8126 33.5C91.7032 33.7604 91.5522 33.9948 91.349 34.1927C91.1511 34.3906 90.922 34.5469 90.6563 34.6562C90.3959 34.7656 90.1251 34.8177 89.8438 34.8177C89.5626 34.8177 89.2865 34.7656 89.0261 34.6562C88.7657 34.5469 88.5365 34.3906 88.3334 34.1927C88.1355 33.9948 87.9845 33.7604 87.8751 33.5C87.7657 33.2396 87.7136 32.9635 87.7136 32.6823V28.4114C87.7136 28.1302 87.7657 27.8594 87.8751 27.5937C87.9845 27.3333 88.1355 27.1041 88.3334 26.901C88.5365 26.7031 88.7657 26.5469 89.0261 26.4427C89.2865 26.3333 89.5626 26.276 89.8438 26.276C90.1251 26.276 90.3959 26.3333 90.6563 26.4427C90.922 26.5469 91.1511 26.7031 91.349 26.901C91.5522 27.1041 91.7032 27.3333 91.8126 27.5937C91.922 27.8594 91.974 28.1302 91.974 28.4114V32.6823Z" fill="black"/>
<path d="M117.547 92.4635C117.547 92.7448 117.495 93.0208 117.385 93.2813C117.276 93.5417 117.125 93.7708 116.922 93.974C116.724 94.1719 116.495 94.3281 116.229 94.4375C115.969 94.5417 115.698 94.599 115.417 94.599C115.135 94.599 114.859 94.5417 114.599 94.4375C114.338 94.3281 114.109 94.1719 113.911 93.974C113.708 93.7708 113.557 93.5417 113.448 93.2813C113.338 93.0208 113.286 92.7448 113.286 92.4635C113.286 92.1823 113.338 91.9063 113.448 91.6458C113.557 91.3854 113.708 91.1563 113.911 90.9531C114.109 90.7552 114.338 90.599 114.599 90.4896C114.859 90.3802 115.135 90.3281 115.417 90.3281C115.698 90.3281 115.969 90.3802 116.229 90.4896C116.495 90.599 116.724 90.7552 116.922 90.9531C117.125 91.1563 117.276 91.3854 117.385 91.6458C117.495 91.9063 117.547 92.1823 117.547 92.4635Z" fill="black"/>
</svg>
