<svg width="134" height="129" viewBox="0 0 134 129" fill="none" xmlns="http://www.w3.org/2000/svg">
<path fill-rule="evenodd" clip-rule="evenodd" d="M92.3125 22.9271H31.8489C31.0052 22.9271 30.3229 22.25 30.3229 21.4114C30.3229 20.5729 31.0052 19.8958 31.8489 19.8958H92.3177C93.1562 19.8958 93.8385 20.5729 93.8385 21.4114C93.8385 22.25 93.1562 22.9271 92.3125 22.9271Z" fill="black"/>
<path fill-rule="evenodd" clip-rule="evenodd" d="M92.3124 39.3646H62.3072C61.4687 39.3646 60.7864 38.6875 60.7864 37.8489C60.7864 37.0104 61.4687 36.3333 62.3072 36.3333H92.3176C93.1562 36.3333 93.8385 37.0104 93.8385 37.8489C93.8385 38.6875 93.1562 39.3698 92.3124 39.3646Z" fill="black"/>
<path fill-rule="evenodd" clip-rule="evenodd" d="M92.3124 55.8073H62.3072C61.4687 55.8073 60.7864 55.1302 60.7864 54.2917C60.7864 53.4531 61.4687 52.776 62.3072 52.776H92.3176C93.1562 52.776 93.8385 53.4531 93.8385 54.2917C93.8385 55.1302 93.1562 55.8073 92.3124 55.8073Z" fill="black"/>
<path fill-rule="evenodd" clip-rule="evenodd" d="M44.2708 72.2448H31.8437C31 72.2448 30.3229 71.5677 30.3229 70.7292C30.3229 69.8906 31 69.2135 31.8437 69.2135H44.2708C45.1145 69.2135 45.7968 69.8906 45.7968 70.7292C45.7968 71.5677 45.1145 72.2448 44.2708 72.2448Z" fill="black"/>
<path fill-rule="evenodd" clip-rule="evenodd" d="M92.3124 105.125H62.6718C61.828 105.125 61.1458 104.448 61.1458 103.609C61.1458 102.771 61.828 102.094 62.6718 102.094H92.3124C93.1562 102.094 93.8333 102.771 93.8333 103.609C93.8385 104.448 93.1562 105.125 92.3124 105.125Z" fill="black"/>
<path fill-rule="evenodd" clip-rule="evenodd" d="M71.4114 72.2448H59.2031C58.3645 72.2448 57.6823 71.5677 57.6823 70.7292C57.6823 69.8906 58.3645 69.2135 59.2031 69.2135H71.4114C72.2552 69.2135 72.9323 69.8906 72.9323 70.7292C72.9323 71.5677 72.2552 72.2448 71.4114 72.2448Z" fill="black"/>
<path fill-rule="evenodd" clip-rule="evenodd" d="M62.0833 88.6823H31.8437C31.0052 88.6823 30.3229 88.0052 30.3229 87.1667C30.3229 86.3281 31.0052 85.651 31.8437 85.651H62.0781C62.9218 85.651 63.5989 86.3281 63.5989 87.1667C63.6041 88.0052 62.9218 88.6823 62.0833 88.6823Z" fill="black"/>
<mask id="mask0_1_5501" style="mask-type:luminance" maskUnits="userSpaceOnUse" x="15" y="0" width="94" height="126">
<path d="M15.6666 0.635406H109V125.333H15.6666V0.635406Z" fill="white"/>
</mask>
<g mask="url(#mask0_1_5501)">
<path fill-rule="evenodd" clip-rule="evenodd" d="M106.24 65.651C105.396 65.651 104.719 64.974 104.719 64.1354V11.6979C104.719 7.28124 101.109 3.68749 96.6718 3.68749H27.4895C23.052 3.68749 19.4426 7.28124 19.4426 11.6979V30.3437C19.4426 31.1823 18.7603 31.8594 17.9166 31.8594C17.078 31.8594 16.3958 31.1823 16.3958 30.3437V11.6979C16.3958 5.60936 21.3697 0.651031 27.4895 0.651031H96.6718C102.786 0.651031 107.766 5.60936 107.766 11.6979V64.1354C107.766 64.974 107.078 65.651 106.24 65.651ZM17.9166 100.094C17.078 100.094 16.3958 99.4115 16.3958 98.5781V58.8698C16.3958 58.0312 17.078 57.3489 17.9166 57.3489C18.7603 57.3489 19.4426 58.0312 19.4426 58.8698V98.5729C19.4426 99.4115 18.7603 100.094 17.9166 100.094ZM96.6718 124.37H62.6718C61.828 124.37 61.1458 123.687 61.1458 122.849C61.1458 122.016 61.828 121.333 62.6718 121.333H96.6718C101.109 121.333 104.719 117.74 104.719 113.318V92.6615C104.719 91.8229 105.396 91.1406 106.24 91.1406C107.078 91.1406 107.76 91.8229 107.76 92.6615V113.318C107.766 119.411 102.786 124.37 96.6718 124.37Z" fill="black"/>
</g>
<path fill-rule="evenodd" clip-rule="evenodd" d="M103.255 87.1979C99.9375 87.1979 97.2291 84.9688 97.2291 82.2188C97.2291 81.3802 97.9114 80.7031 98.75 80.7031C99.5937 80.7031 100.271 81.3802 100.271 82.2188C100.271 83.2552 101.667 84.1667 103.255 84.1667C104.849 84.1667 106.24 83.2552 106.24 82.2188C106.24 81.1667 104.896 80.5833 102.677 79.7552C100.25 78.8438 97.2291 77.7083 97.2291 74.5677C97.2291 71.8177 99.9375 69.5833 103.255 69.5833C106.583 69.5833 109.286 71.8177 109.286 74.5677C109.286 75.4063 108.609 76.0833 107.766 76.0833C106.922 76.0833 106.24 75.4063 106.24 74.5677C106.24 73.5261 104.849 72.6198 103.255 72.6198C101.667 72.6198 100.271 73.5261 100.271 74.5677C100.271 75.5365 101.651 76.125 103.75 76.9167C106.219 77.8386 109.286 78.9948 109.286 82.224C109.292 84.9636 106.583 87.1979 103.255 87.1979Z" fill="black"/>
<path fill-rule="evenodd" clip-rule="evenodd" d="M87.9739 87.1979C82.9114 87.1979 78.7916 83.25 78.7916 78.3906C78.7916 73.5365 82.9062 69.5833 87.9739 69.5833C89.9479 69.5833 91.9062 70.2083 93.4843 71.3438C94.1666 71.8333 94.3229 72.7813 93.8281 73.4636C93.3385 74.1406 92.3854 74.2917 91.7031 73.8021C90.6406 73.0365 89.3125 72.6198 87.9739 72.6198C84.5937 72.6198 81.8385 75.2083 81.8385 78.3906C81.8385 81.5729 84.5937 84.1667 87.9739 84.1667C89.3177 84.1667 90.6406 83.7448 91.7031 82.9792C92.3854 82.4896 93.3385 82.6458 93.8281 83.3229C94.3229 84 94.1666 84.9531 93.4843 85.4427C91.9062 86.5781 89.9479 87.1979 87.9739 87.1979Z" fill="black"/>
<path fill-rule="evenodd" clip-rule="evenodd" d="M118.432 87.1979C115.109 87.1979 112.396 84.9688 112.396 82.2188C112.396 81.3802 113.078 80.7031 113.922 80.7031C114.76 80.7031 115.443 81.3802 115.443 82.2188C115.443 83.2552 116.838 84.1667 118.427 84.1667C120.021 84.1667 121.411 83.2552 121.411 82.2188C121.411 81.1667 120.068 80.5833 117.844 79.7552C115.417 78.8438 112.396 77.7083 112.396 74.5677C112.396 71.8177 115.104 69.5833 118.427 69.5833C121.75 69.5833 124.458 71.8177 124.458 74.5677C124.458 75.4063 123.776 76.0833 122.932 76.0833C122.094 76.0833 121.411 75.4063 121.411 74.5677C121.411 73.5261 120.021 72.6198 118.427 72.6198C116.838 72.6198 115.443 73.5261 115.443 74.5677C115.443 75.5365 116.818 76.125 118.917 76.9167C121.385 77.8386 124.458 78.9948 124.458 82.224C124.463 84.9636 121.755 87.1979 118.432 87.1979Z" fill="black"/>
<path fill-rule="evenodd" clip-rule="evenodd" d="M8.11458 51.9531C7.27083 51.9531 6.59375 51.276 6.59375 50.4375V38.776C6.59375 37.9375 7.27083 37.2604 8.11458 37.2604C8.95312 37.2604 9.63542 37.9375 9.63542 38.776V50.4375C9.63542 51.276 8.95312 51.9531 8.11458 51.9531Z" fill="black"/>
<path fill-rule="evenodd" clip-rule="evenodd" d="M15.3698 51.9531C14.526 51.9531 13.8438 51.276 13.8438 50.4375V38.776C13.8438 37.9375 14.526 37.2604 15.3698 37.2604C16.2083 37.2604 16.8906 37.9375 16.8906 38.776V50.4375C16.8906 51.276 16.2083 51.9531 15.3698 51.9531Z" fill="black"/>
<path fill-rule="evenodd" clip-rule="evenodd" d="M15.3698 46.1146H8.11458C7.27083 46.1146 6.59375 45.4375 6.59375 44.5989C6.59375 43.7604 7.27083 43.0833 8.11458 43.0833H15.3698C16.2083 43.0833 16.8906 43.7604 16.8906 44.5989C16.8906 45.4375 16.2083 46.1146 15.3698 46.1146Z" fill="black"/>
<path fill-rule="evenodd" clip-rule="evenodd" d="M43.7083 51.9531C42.8697 51.9531 42.1874 51.276 42.1874 50.4375V46.3021L40.1926 51.026C39.9583 51.5937 39.4062 51.9531 38.7916 51.9531C38.177 51.9531 37.6249 51.5885 37.3853 51.026L35.3905 46.3021V50.4375C35.3905 51.276 34.7083 51.9531 33.8697 51.9531C33.0312 51.9531 32.3489 51.276 32.3489 50.4375V38.776C32.3489 38.0521 32.8593 37.4271 33.5676 37.2864C34.2812 37.1458 34.9947 37.5208 35.276 38.1875L38.7916 46.526L42.3072 38.1875C42.5885 37.5208 43.302 37.1458 44.0103 37.2864C44.7239 37.4323 45.2343 38.0521 45.2343 38.776V50.4375C45.2343 51.276 44.552 51.9531 43.7083 51.9531Z" fill="black"/>
<path fill-rule="evenodd" clip-rule="evenodd" d="M56.0781 51.9531H48.0365C47.1979 51.9531 46.5156 51.276 46.5156 50.4375V38.776C46.5156 37.9375 47.1979 37.2604 48.0365 37.2604C48.8802 37.2604 49.5625 37.9375 49.5625 38.776V48.9219H56.0781C56.9167 48.9219 57.599 49.5989 57.599 50.4375C57.599 51.276 56.9167 51.9531 56.0781 51.9531Z" fill="black"/>
<path fill-rule="evenodd" clip-rule="evenodd" d="M29.5416 40.2917H19.6978C18.8541 40.2917 18.177 39.6146 18.177 38.776C18.177 37.9375 18.8541 37.2604 19.6978 37.2604H29.5416C30.3801 37.2604 31.0624 37.9375 31.0624 38.776C31.0624 39.6146 30.3801 40.2917 29.5416 40.2917Z" fill="black"/>
<path fill-rule="evenodd" clip-rule="evenodd" d="M24.6197 51.9531C23.7812 51.9531 23.0989 51.276 23.0989 50.4375V38.776C23.0989 37.9375 23.7812 37.2604 24.6197 37.2604C25.4635 37.2604 26.1405 37.9375 26.1405 38.776V50.4375C26.1405 51.276 25.4635 51.9531 24.6197 51.9531Z" fill="black"/>
<path fill-rule="evenodd" clip-rule="evenodd" d="M23.901 122.307C20.2603 122.307 17.302 119.417 17.302 115.865C17.302 115.026 17.9791 114.349 18.828 114.349C19.6666 114.349 20.3489 115.026 20.3489 115.865C20.3489 117.745 21.9374 119.276 23.901 119.276C25.8593 119.276 27.453 117.745 27.453 115.865V104.891C27.453 104.052 28.1353 103.375 28.9739 103.375C29.8176 103.375 30.4999 104.052 30.4999 104.891V115.865C30.4999 119.417 27.5364 122.307 23.901 122.307Z" fill="black"/>
<path fill-rule="evenodd" clip-rule="evenodd" d="M41.177 122.307C37.6301 122.307 34.7395 119.932 34.7395 117.016C34.7395 116.172 35.4218 115.495 36.2655 115.495C37.1041 115.495 37.7864 116.172 37.7864 117.016C37.7864 118.24 39.3385 119.271 41.1718 119.271C43.0155 119.271 44.5624 118.234 44.5624 117.016C44.5624 115.781 43.0624 115.125 40.5885 114.198C37.9843 113.219 34.7395 112 34.7395 108.672C34.7395 105.75 37.6249 103.38 41.177 103.38C44.7239 103.38 47.6093 105.75 47.6093 108.672C47.6093 109.51 46.927 110.193 46.0885 110.193C45.2499 110.193 44.5676 109.51 44.5676 108.672C44.5676 107.448 43.0155 106.417 41.177 106.417C39.3437 106.417 37.7864 107.453 37.7864 108.672C37.7864 109.823 39.2551 110.453 41.6666 111.359C44.3176 112.354 47.6145 113.594 47.6145 117.016C47.6145 119.932 44.7239 122.307 41.177 122.307Z" fill="black"/>
<mask id="mask1_1_5501" style="mask-type:luminance" maskUnits="userSpaceOnUse" x="0" y="28" width="65" height="34">
<path d="M0.359375 28H65V61.3333H0.359375V28Z" fill="white"/>
</mask>
<g mask="url(#mask1_1_5501)">
<path fill-rule="evenodd" clip-rule="evenodd" d="M3.40625 57.3489H60.7865V31.8594H3.40625V57.3489ZM62.3073 60.3854H1.88542C1.04167 60.3854 0.359375 59.7031 0.359375 58.8698V30.3385C0.359375 29.5 1.04167 28.8229 1.88542 28.8229H62.3073C63.151 28.8229 63.8281 29.5 63.8281 30.3385V58.8698C63.8281 59.7031 63.151 60.3854 62.3073 60.3854Z" fill="black"/>
</g>
<mask id="mask2_1_5501" style="mask-type:luminance" maskUnits="userSpaceOnUse" x="69" y="61" width="65" height="34">
<path d="M69 61.3333H133.359V94.6667H69V61.3333Z" fill="white"/>
</mask>
<g mask="url(#mask2_1_5501)">
<path fill-rule="evenodd" clip-rule="evenodd" d="M72.9323 91.1406H130.313V65.651H72.9323V91.1406ZM131.839 94.1771H71.4115C70.5729 94.1771 69.8906 93.5 69.8906 92.6615V64.1302C69.8906 63.2917 70.5729 62.6146 71.4115 62.6146H131.839C132.677 62.6146 133.359 63.2917 133.359 64.1302V92.6615C133.359 93.5 132.677 94.1771 131.839 94.1771Z" fill="black"/>
</g>
<mask id="mask3_1_5501" style="mask-type:luminance" maskUnits="userSpaceOnUse" x="0" y="96" width="65" height="33">
<path d="M0.359375 96H65V128.635H0.359375V96Z" fill="white"/>
</mask>
<g mask="url(#mask3_1_5501)">
<path fill-rule="evenodd" clip-rule="evenodd" d="M3.76554 125.589H61.1458V100.094H3.76554V125.589ZM62.6718 128.62H2.24471C1.40617 128.62 0.723877 127.943 0.723877 127.104V98.5781C0.723877 97.7396 1.40617 97.0573 2.24471 97.0573H62.6718C63.5155 97.0573 64.1926 97.7396 64.1926 98.5781V127.104C64.1926 127.943 63.5155 128.62 62.6718 128.62Z" fill="black"/>
</g>
</svg>
