<svg width="126" height="126" viewBox="0 0 126 126" fill="none" xmlns="http://www.w3.org/2000/svg">
<path d="M9.60937 3.56247C8.92707 3.2708 8.24478 3.2708 7.56249 3.66143L3.66145 6.09893C2.78124 6.58851 2.48957 7.85413 3.07291 8.73434C3.66145 9.61455 4.82811 9.90622 5.80728 9.32288L6.68228 8.8333V13.125H5.70832C4.63541 13.125 3.7552 14.0052 3.7552 15.0781C3.7552 16.151 4.63541 17.0312 5.70832 17.0312H11.5625C12.6354 17.0312 13.5156 16.151 13.5156 15.0781C13.5156 14.0052 12.6354 13.125 11.5625 13.125H10.5885V5.31768C10.5885 4.53643 10.1979 3.95309 9.60937 3.56247Z" fill="black"/>
<path d="M14.4896 22.8854C14.4896 21.8125 13.6146 20.9323 12.5365 20.9323H4.73438C3.66146 20.9323 2.78125 21.8125 2.78125 22.8854V32.6406C2.78125 33.7135 3.66146 34.5937 4.73438 34.5937H12.5365C13.6146 34.5937 14.4896 33.7135 14.4896 32.6406V22.8854ZM10.5885 30.6927H6.68229V24.8333H10.5885V30.6927Z" fill="black"/>
<path d="M9.60938 38.6927C9.02605 38.3021 8.2448 38.4011 7.66146 38.7917L3.75521 41.2292C2.88021 41.8125 2.58334 42.9844 3.17188 43.9636C3.75521 44.9375 4.92709 45.1302 5.90105 44.5469L6.6823 43.9636V48.1563H5.70834C4.63542 48.1563 3.75521 49.0365 3.75521 50.1094C3.75521 51.1823 4.63542 52.0625 5.70834 52.0625H11.5625C12.6354 52.0625 13.5156 51.1823 13.5156 50.1094C13.5156 49.0365 12.6354 48.1563 11.5625 48.1563H10.5885V40.349C10.5885 39.6667 10.1979 39.0833 9.60938 38.6927Z" fill="black"/>
<path d="M14.4896 67.6718V57.9166C14.4896 56.8437 13.6146 55.9635 12.5365 55.9635H4.73438C3.66146 55.9635 2.78125 56.8437 2.78125 57.9166V67.6718C2.78125 68.7448 3.66146 69.625 4.73438 69.625H12.5365C13.6146 69.625 14.4896 68.7448 14.4896 67.6718ZM10.5885 65.7239H6.68229V59.8645H10.5885V65.7239Z" fill="black"/>
<path d="M25.2239 3.56247C24.6406 3.17185 23.8593 3.27081 23.2708 3.66143L19.3698 6.09893C18.4896 6.68747 18.1979 7.85414 18.7864 8.83331C19.3698 9.70831 20.5416 10.0052 21.5156 9.41664L22.2968 8.83331V13.125H21.3229C20.25 13.125 19.3698 14.0052 19.3698 15.0781C19.3698 16.151 20.25 17.0312 21.3229 17.0312H27.1771C28.25 17.0312 29.125 16.151 29.125 15.0781C29.125 14.0052 28.25 13.125 27.1771 13.125H26.1979V5.31768C26.1979 4.53643 25.8073 3.9531 25.2239 3.56247Z" fill="black"/>
<path d="M30.1041 22.8854C30.1041 21.8125 29.2239 20.9323 28.151 20.9323H20.3437C19.2708 20.9323 18.3958 21.8125 18.3958 22.8854V32.6406C18.3958 33.7135 19.2708 34.5937 20.3437 34.5937H28.151C29.2239 34.5937 30.1041 33.7135 30.1041 32.6406V22.8854ZM26.1978 30.6927H22.2968V24.8333H26.1978V30.6927Z" fill="black"/>
<path d="M25.2239 38.6927C24.6406 38.3021 23.8593 38.4011 23.2708 38.7917L19.3698 41.2292C18.4896 41.8125 18.1979 42.9844 18.7864 43.9636C19.3698 44.9375 20.5416 45.1302 21.5156 44.5469L22.3958 43.9636V48.1563H21.4166C20.3437 48.1563 19.4687 49.0365 19.4687 50.1094C19.4687 51.1823 20.3437 52.0625 21.4166 52.0625H27.276C28.3489 52.0625 29.2239 51.1823 29.2239 50.1094C29.2239 49.0365 28.3489 48.1563 27.276 48.1563H26.2968V40.349C26.1979 39.6667 25.8073 39.0833 25.2239 38.6927Z" fill="black"/>
<path d="M30.1041 57.9166C30.1041 56.8437 29.2239 55.9635 28.151 55.9635H20.3437C19.2708 55.9635 18.3958 56.8437 18.3958 57.9166V67.6718C18.3958 68.7448 19.2708 69.625 20.3437 69.625H28.151C29.2239 69.625 30.1041 68.7448 30.1041 67.6718V57.9166ZM26.1978 65.7239H22.2968V59.8645H26.1978V65.7239Z" fill="black"/>
<path d="M40.8385 3.56247C40.2499 3.17185 39.4687 3.27081 38.8854 3.66143L34.9843 6.09893C34.1041 6.68747 33.8124 7.85414 34.3958 8.83331C34.9843 9.70831 36.151 10.0052 37.1302 9.41664L37.9114 8.83331V13.125H36.9322C35.8593 13.125 34.9843 14.0052 34.9843 15.0781C34.9843 16.151 35.8593 17.0312 36.9322 17.0312H42.7864C43.8645 17.0312 44.7395 16.151 44.7395 15.0781C44.7395 14.0052 43.8645 13.125 42.7864 13.125H41.8124V5.31768C41.8124 4.53643 41.4218 3.9531 40.8385 3.56247Z" fill="black"/>
<path d="M45.7135 22.8854C45.7135 21.8125 44.8385 20.9323 43.7655 20.9323H35.9583C34.8853 20.9323 34.0051 21.8125 34.0051 22.8854V32.6406C34.0051 33.7135 34.8853 34.5937 35.9583 34.5937H43.7655C44.8385 34.5937 45.7135 33.7135 45.7135 32.6406V22.8854ZM41.8124 30.6927H37.9114V24.8333H41.8124V30.6927Z" fill="black"/>
<path d="M40.8385 38.6927C40.2499 38.3021 39.4687 38.4011 38.8854 38.7917L34.9843 41.2292C34.1041 41.8125 33.8124 42.9844 34.3958 43.9636C34.9843 44.9375 36.151 45.1302 37.1302 44.5469L38.0052 43.9636V48.1563H37.0312C35.9583 48.1563 35.0781 49.0365 35.0781 50.1094C35.0781 51.1823 35.9583 52.0625 37.0312 52.0625H42.8854C43.9583 52.0625 44.8385 51.1823 44.8385 50.1094C44.8385 49.0365 43.9583 48.1563 42.8854 48.1563H41.9114V40.349C41.8124 39.6667 41.4218 39.0833 40.8385 38.6927Z" fill="black"/>
<path d="M45.7135 67.6718V57.9166C45.7135 56.8437 44.8385 55.9635 43.7655 55.9635H35.9583C34.8853 55.9635 34.0051 56.8437 34.0051 57.9166V67.6718C34.0051 68.7448 34.8853 69.625 35.9583 69.625H43.7655C44.8385 69.625 45.7135 68.7448 45.7135 67.6718ZM41.8124 65.7239H37.9114V59.8645H41.8124V65.7239Z" fill="black"/>
<path d="M56.4479 3.56247C55.8645 3.17185 55.0833 3.27081 54.5 3.66143L50.5937 6.09893C49.7187 6.68747 49.4218 7.85414 50.0104 8.83331C50.5937 9.70831 51.7656 10.0052 52.7395 9.41664L53.5208 8.83331V13.125H52.5468C51.4739 13.125 50.5937 14.0052 50.5937 15.0781C50.5937 16.151 51.4739 17.0312 52.5468 17.0312H58.401C59.4739 17.0312 60.3541 16.151 60.3541 15.0781C60.3541 14.0052 59.4739 13.125 58.401 13.125H57.427V5.31768C57.427 4.53643 57.0364 3.9531 56.4479 3.56247Z" fill="black"/>
<path d="M61.3281 22.8854C61.3281 21.8125 60.4531 20.9323 59.375 20.9323H51.5729C50.5 20.9323 49.6198 21.8125 49.6198 22.8854V32.6406C49.6198 33.7135 50.5 34.5937 51.5729 34.5937H59.375C60.4531 34.5937 61.3281 33.7135 61.3281 32.6406V22.8854ZM57.427 30.6927H53.5208V24.8333H57.427V30.6927Z" fill="black"/>
<path d="M56.4479 38.6927C55.8645 38.3021 55.0833 38.4011 54.5 38.7917L50.5937 41.2292C49.7187 41.8125 49.4218 42.9844 50.0104 43.9636C50.5937 44.9375 51.7656 45.1302 52.7395 44.5469L53.6198 43.9636V48.1563H52.6458C51.5729 48.1563 50.6927 49.0365 50.6927 50.1094C50.6927 51.1823 51.5729 52.0625 52.6458 52.0625H58.5C59.5729 52.0625 60.4531 51.1823 60.4531 50.1094C60.4531 49.0365 59.5729 48.1563 58.5 48.1563H57.5208V40.349C57.427 39.6667 57.0364 39.0833 56.4479 38.6927Z" fill="black"/>
<path d="M72.0625 38.6927C71.4792 38.3021 70.6979 38.4011 70.1094 38.7917L66.2083 41.2292C65.3281 41.8125 65.0364 42.9844 65.6198 43.9636C66.2083 44.9375 67.3802 45.1302 68.3542 44.5469L69.2344 43.9636V48.1563H68.2552C67.1823 48.1563 66.3073 49.0365 66.3073 50.1094C66.3073 51.1823 67.1823 52.0625 68.2552 52.0625H74.1094C75.1875 52.0625 76.0625 51.1823 76.0625 50.1094C76.0625 49.0365 75.1875 48.1563 74.1094 48.1563H73.1354V40.349C73.0364 39.6667 72.6458 39.0833 72.0625 38.6927Z" fill="black"/>
<path d="M80.8438 67.6718C80.8438 68.7448 81.724 69.625 82.7969 69.625H90.6042C91.6771 69.625 92.5521 68.7448 92.5521 67.6718V57.9166C92.5521 56.8437 91.6771 55.9635 90.6042 55.9635H82.7969C81.724 55.9635 80.8438 56.8437 80.8438 57.9166V67.6718ZM84.75 59.8645H88.651V65.7239H84.75V59.8645Z" fill="black"/>
<path d="M99.3855 13.125C98.3125 13.125 97.4323 14.0052 97.4323 15.0781C97.4323 16.1511 98.3125 17.0313 99.3855 17.0313H105.24C106.313 17.0313 107.193 16.1511 107.193 15.0781C107.193 14.0052 106.313 13.125 105.24 13.125H104.266V5.31772C104.266 4.63543 103.875 3.95314 103.287 3.66147C102.703 3.27085 101.922 3.36981 101.339 3.76043L97.4323 6.19793C96.5573 6.78126 96.2605 7.95314 96.849 8.9323C97.4323 9.8073 98.6042 10.099 99.5782 9.51564L100.458 8.9323V13.224H99.3855V13.125Z" fill="black"/>
<path d="M118.901 3.56247C118.318 3.17185 117.536 3.27081 116.948 3.66143L113.047 6.09893C112.167 6.68747 111.875 7.85414 112.458 8.83331C113.047 9.70831 114.219 10.0052 115.193 9.41664L116.073 8.83331V13.125H115.094C114.021 13.125 113.146 14.0052 113.146 15.0781C113.146 16.151 114.021 17.0312 115.094 17.0312H120.948C122.026 17.0312 122.901 16.151 122.901 15.0781C122.901 14.0052 122.026 13.125 120.948 13.125H119.974V5.31768C119.875 4.53643 119.484 3.9531 118.901 3.56247Z" fill="black"/>
<path d="M13.5156 85.2396C13.5156 84.1667 12.6354 83.2864 11.5625 83.2864H10.5885V75.4792C10.5885 74.7969 10.1979 74.1146 9.60938 73.8229C9.02605 73.4323 8.2448 73.526 7.66146 73.9167L3.75521 76.3594C2.88021 76.9427 2.58334 78.1146 3.17188 79.0885C3.75521 80.0677 4.92709 80.2604 5.90105 79.6771L6.6823 78.9948V83.2864H5.70834C4.63542 83.2864 3.75521 84.1667 3.75521 85.2396C3.75521 86.3125 4.63542 87.1875 5.70834 87.1875H11.5625C12.6354 87.1875 13.5156 86.3125 13.5156 85.2396Z" fill="black"/>
<path d="M21.3229 83.2864C20.25 83.2864 19.3698 84.1667 19.3698 85.2396C19.3698 86.3125 20.25 87.1875 21.3229 87.1875H27.1771C28.25 87.1875 29.125 86.3125 29.125 85.2396C29.125 84.1667 28.25 83.2864 27.1771 83.2864H26.1979V75.4792C26.1979 74.7969 25.8073 74.1146 25.2239 73.8229C24.6406 73.4323 23.8593 73.526 23.2708 73.9167L19.3698 76.3594C18.4896 76.9427 18.1979 78.1146 18.7864 79.0885C19.3698 80.0677 20.5416 80.2604 21.5156 79.6771L22.3958 79.0885V83.2864H21.3229Z" fill="black"/>
<path d="M36.9322 83.2864C35.8593 83.2864 34.9843 84.1667 34.9843 85.2396C34.9843 86.3125 35.8593 87.1875 36.9322 87.1875H42.7864C43.8645 87.1875 44.7395 86.3125 44.7395 85.2396C44.7395 84.1667 43.8645 83.2864 42.7864 83.2864H41.8124V75.4792C41.8124 74.7969 41.4218 74.1146 40.8385 73.8229C40.2499 73.4323 39.4687 73.526 38.8854 73.9167L34.9843 76.3594C34.1041 76.9427 33.8124 78.1146 34.3958 79.0885C34.9843 80.0677 36.151 80.2604 37.1302 79.6771L38.0052 79.0885V83.2864H36.9322Z" fill="black"/>
<path d="M41.8124 100.849H41.3228L35.177 104.557C35.3749 104.656 35.6666 104.755 35.9583 104.755H43.7655C44.8385 104.755 45.7135 103.875 45.7135 102.802V98.1198L41.8124 100.557V100.849Z" fill="black"/>
<path d="M49.6198 67.6718C49.6198 68.1614 49.8125 68.651 50.1093 68.9427C52.9375 66.7968 56.4479 65.427 60.3541 65.427C60.6458 65.427 61.0364 65.427 61.3281 65.526V57.9166C61.3281 56.8437 60.4531 55.9635 59.375 55.9635H51.5729C50.5 55.9635 49.6198 56.8437 49.6198 57.9166V67.6718ZM53.5208 59.8645H57.427V65.7239H53.5208V59.8645Z" fill="black"/>
<path d="M65.2344 66.2083C67.5729 66.8906 69.625 68.0625 71.3802 69.625H74.9896C76.0625 69.625 76.9427 68.7448 76.9427 67.6718V57.9166C76.9427 56.8437 76.0625 55.9635 74.9896 55.9635H67.1823C66.1094 55.9635 65.2344 56.8437 65.2344 57.9166V66.2083ZM69.1354 59.8645H73.0365V65.7239H69.1354V59.8645Z" fill="black"/>
<path d="M57.427 98.901V100.849H53.5208V97.7291C52.1562 97.1406 50.7916 96.2656 49.6198 95.2864V102.802C49.6198 103.875 50.5 104.755 51.5729 104.755H59.375C60.4531 104.755 61.3281 103.875 61.3281 102.802V99.0937C61.0364 99.0937 60.6458 99.1927 60.3541 99.1927C59.375 99.1927 58.401 99.0937 57.427 98.901Z" fill="black"/>
<path d="M121.828 91.0938H118.12C118.12 91.3854 118.219 91.776 118.219 92.0677C118.219 93.0417 118.12 94.0208 117.927 94.9948H119.875V100.849H115.974V100.365C115.094 101.828 114.021 103.193 112.849 104.365C113.146 104.656 113.63 104.755 114.021 104.755H121.828C122.901 104.755 123.781 103.875 123.781 102.802V93.0417C123.781 91.9687 122.901 91.0938 121.828 91.0938Z" fill="black"/>
<path d="M58.401 118.417H57.427V110.609C57.427 109.927 57.0364 109.245 56.4479 108.948C55.8645 108.557 55.0833 108.656 54.5 109.047L50.5937 111.484C49.7187 112.073 49.4218 113.245 50.0104 114.219C50.5937 115.193 51.7656 115.391 52.7395 114.802L53.6198 114.219V118.51H52.6458C51.5729 118.51 50.6927 119.391 50.6927 120.464C50.6927 121.536 51.5729 122.417 52.6458 122.417H58.5C59.5729 122.417 60.4531 121.536 60.4531 120.464C60.4531 119.391 59.4739 118.417 58.401 118.417Z" fill="black"/>
<path d="M74.0156 118.417H73.0364V110.609C73.0364 109.927 72.6458 109.245 72.0625 108.948C71.4792 108.557 70.6979 108.656 70.1094 109.047L66.2083 111.484C65.3281 112.073 65.0364 113.245 65.6198 114.219C66.2083 115.193 67.3802 115.391 68.3542 114.802L69.2344 114.219V118.51H68.2552C67.1823 118.51 66.3073 119.391 66.3073 120.464C66.3073 121.536 67.1823 122.417 68.2552 122.417H74.1094C75.1875 122.417 76.0625 121.536 76.0625 120.464C76.0625 119.391 75.0885 118.417 74.0156 118.417Z" fill="black"/>
<path d="M89.625 118.417H88.6511V110.609C88.6511 109.927 88.2604 109.245 87.6771 108.948C87.0886 108.557 86.3073 108.656 85.724 109.047L81.8229 111.484C80.9427 112.073 80.6511 113.245 81.2344 114.219C81.8229 115.193 82.9896 115.391 83.9688 114.802L84.8438 114.219V118.51H83.8698C82.7969 118.51 81.9167 119.391 81.9167 120.464C81.9167 121.536 82.7969 122.417 83.8698 122.417H89.724C90.7969 122.417 91.6771 121.536 91.6771 120.464C91.6771 119.391 90.6979 118.417 89.625 118.417Z" fill="black"/>
<path d="M105.24 118.417H104.266V110.609C104.266 109.927 103.875 109.245 103.287 108.948C102.703 108.557 101.922 108.656 101.339 109.047L97.4323 111.484C96.5573 112.073 96.2605 113.245 96.849 114.219C97.4323 115.193 98.6042 115.391 99.5782 114.802L100.458 114.219V118.51H99.4844C98.4115 118.51 97.5313 119.391 97.5313 120.464C97.5313 121.536 98.4115 122.417 99.4844 122.417H105.339C106.412 122.417 107.287 121.536 107.287 120.464C107.287 119.391 106.313 118.417 105.24 118.417Z" fill="black"/>
<path d="M120.854 118.417H119.875V110.609C119.875 109.927 119.484 109.245 118.901 108.948C118.318 108.557 117.536 108.656 116.948 109.047L113.047 111.484C112.167 112.073 111.875 113.245 112.458 114.219C113.047 115.193 114.219 115.391 115.193 114.802L116.073 114.219V118.51H115.094C114.021 118.51 113.146 119.391 113.146 120.464C113.146 121.536 114.021 122.417 115.094 122.417H120.948C122.026 122.417 122.901 121.536 122.901 120.464C122.901 119.391 121.927 118.417 120.854 118.417Z" fill="black"/>
<path d="M2.78125 93.0417V94.3125C4.04687 93.1406 5.41667 92.0677 6.88021 91.0938H4.73438C3.66146 91.0938 2.78125 91.9687 2.78125 93.0417Z" fill="black"/>
<path d="M28.151 91.0938H27.9583C28.7395 91.5781 29.4218 91.9687 30.1041 92.5573C29.8124 91.776 29.0312 91.0938 28.151 91.0938Z" fill="black"/>
<path d="M42.7865 118.417H41.8125V110.609C41.8125 109.927 41.4219 109.245 40.8385 108.948C40.25 108.557 39.4688 108.656 38.8854 109.047L37.9115 109.63C37.8125 111.391 37.5208 113.146 37.0313 114.802L37.9115 114.219V118.51H36.9323C35.8594 118.51 34.9844 119.391 34.9844 120.464C34.9844 121.536 35.8594 122.417 36.9323 122.417H42.7865C43.8646 122.417 44.7396 121.536 44.7396 120.464C44.7396 119.391 43.8646 118.417 42.7865 118.417Z" fill="black"/>
<path d="M88.6511 83.0885V75.4792C88.6511 74.7969 88.2604 74.1146 87.6771 73.8229C87.0886 73.4323 86.3073 73.526 85.724 73.9167L81.8229 76.3594C80.9427 76.9427 80.6511 78.1146 81.2344 79.0885C81.8229 80.0677 82.9896 80.2604 83.9688 79.6771L84.8438 79.0885V82.2135L88.6511 83.0885Z" fill="black"/>
<path d="M84.75 94.9948C84.651 94.7031 84.651 94.4114 84.651 94.1198L80.8438 93.2396V102.802C80.8438 103.875 81.724 104.755 82.7969 104.755H90.3125C89.0417 103.583 87.8698 102.312 86.9948 100.849H84.75V94.9948Z" fill="black"/>
<path d="M74.3073 91.6771C73.4271 92.9479 72.4531 94.0208 71.3802 94.9948H73.0365V100.849H69.1354V96.6562C67.9635 97.4375 66.599 98.0208 65.2344 98.4114V102.802C65.2344 103.875 66.1094 104.755 67.1823 104.755H74.9896C76.0625 104.755 76.9427 103.875 76.9427 102.802V93.0416C76.9427 92.75 76.8437 92.4583 76.7448 92.2656L74.3073 91.6771Z" fill="black"/>
<path d="M108.167 24.8333V22.8854C108.167 21.8125 107.286 20.9323 106.213 20.9323H98.4114C97.3333 20.9323 96.4583 21.8125 96.4583 22.8854V22.9791L100.167 26.9843C100.266 26.9843 100.359 26.8854 100.359 26.8854V24.8333H104.266V25.4218C105.531 25.1302 106.802 24.9323 108.167 24.8333Z" fill="black"/>
<path d="M123.781 30.9843V22.8854C123.781 21.8125 122.901 20.9323 121.828 20.9323H114.021C112.948 20.9323 112.073 21.8125 112.073 22.8854V25.0312C113.437 25.2239 114.703 25.5208 115.974 26.0052V24.8333H119.875V27.8593C121.339 28.7395 122.609 29.8125 123.781 30.9843Z" fill="black"/>
<path d="M99.1874 69.625L100.167 63.5729C98.8958 62.8906 97.6301 62.1094 96.4583 61.2344V67.6719C96.4583 68.7448 97.3333 69.625 98.4114 69.625H99.1874Z" fill="black"/>
<path d="M119.875 65.7239H115.974V64.552C114.703 65.0364 113.437 65.3333 112.073 65.526V67.6718C112.073 68.7448 112.948 69.625 114.021 69.625H121.828C122.901 69.625 123.781 68.7448 123.781 67.6718V59.4791C122.609 60.6458 121.339 61.7187 119.875 62.5989V65.7239Z" fill="black"/>
<path d="M83.7709 48.1563C82.6979 48.1563 81.8229 49.0365 81.8229 50.1094C81.8229 51.1823 82.6979 52.0625 83.7709 52.0625H89.625C89.724 52.0625 89.724 52.0625 89.8229 52.0625C89.3334 50.7917 89.0417 49.5208 88.849 48.1563H88.6511V40.349C88.6511 39.6667 88.2604 38.9844 87.6771 38.6927C87.0886 38.3021 86.3073 38.4011 85.724 38.7917L81.8229 41.2292C80.9427 41.8125 80.6511 42.9844 81.2344 43.9636C81.8229 44.9375 82.9896 45.1302 83.9688 44.5469L84.8438 43.9636V48.1563H83.7709Z" fill="black"/>
<path d="M65.2344 22.4948C65.2344 22.5937 65.2344 22.6875 65.2344 22.7864V32.5468C65.2344 33.6198 66.1094 34.4948 67.1823 34.4948H74.9896C76.0625 34.4948 76.9427 33.6198 76.9427 32.5468V29.5208C75.5781 29.3229 74.3073 29.0312 73.0365 28.5416V30.5937H69.1354V26.3958C67.6719 25.4218 66.3073 24.0573 65.2344 22.4948Z" fill="black"/>
<path d="M80.8438 29.5208V32.5468C80.8438 33.6198 81.724 34.4948 82.7969 34.4948H90.6042C90.7969 34.4948 90.9948 34.4948 91.1875 34.401L90.3125 33.4218L87.6771 30.4948H84.75V28.4479C83.4792 29.0312 82.2135 29.4218 80.8438 29.5208Z" fill="black"/>
<mask id="mask0_1_5504" style="mask-type:luminance" maskUnits="userSpaceOnUse" x="0" y="0" width="126" height="126">
<path d="M0.828125 0.296875H125.828V125.297H0.828125V0.296875Z" fill="white"/>
</mask>
<g mask="url(#mask0_1_5504)">
<path d="M109.141 28.7396C105.531 28.7396 102.12 29.9115 99.3854 31.9583L89.0417 20.7396C90.6042 18.5885 91.5781 15.9583 91.5781 13.125C91.6771 6.09896 85.9167 0.34375 78.8958 0.34375C71.8698 0.34375 66.1094 6.09896 66.1094 13.125C66.1094 20.151 71.8698 25.9115 78.8958 25.9115C81.625 25.9115 84.1615 25.0313 86.3073 23.5677L96.5573 34.4948C94.1146 37.4219 92.5521 41.1302 92.5521 45.2292C92.5521 52.7448 97.6302 59.0885 104.557 61.1354L101.531 79.0885C101.432 79.0885 101.432 79.0885 101.339 79.0885C95.9688 79.0885 91.2865 82.4063 89.3333 87.1875L73.2344 83.3854C73.2344 82.9948 73.2344 82.7031 73.2344 82.3125C73.2344 75.1875 67.474 69.4323 60.2552 69.4323C53.0365 69.4323 47.474 75.1875 47.474 82.3125C47.474 84.0677 47.8646 85.8229 48.4479 87.2865L30.3958 98.3125C27.3698 94.6042 22.6875 92.0677 17.4167 92.0677C8.24479 92.0677 0.828125 99.4844 0.828125 108.656C0.828125 117.828 8.24479 125.245 17.4167 125.245C26.5885 125.245 34.0052 117.828 34.0052 108.656C34.0052 106.219 33.4219 103.875 32.4427 101.729L50.5 90.7031C52.8385 93.5313 56.4479 95.2865 60.3542 95.2865C65.7188 95.2865 70.4063 91.9688 72.3542 87.1875L88.4583 90.9948C88.4583 91.3854 88.3594 91.6771 88.3594 92.0677C88.3594 99.1927 94.1146 104.948 101.339 104.948C108.557 104.948 114.313 99.1927 114.313 92.0677C114.313 86.3125 110.609 81.5313 105.438 79.7708L108.458 61.8177C108.755 61.8177 108.948 61.8177 109.24 61.8177C118.411 61.8177 125.828 54.401 125.828 45.2292C125.729 36.1563 118.318 28.7396 109.141 28.7396ZM78.8958 21.9063C74.0156 21.9063 70.0156 17.9063 70.0156 13.026C70.0156 8.24479 74.0156 4.24479 78.8958 4.24479C83.7708 4.24479 87.7708 8.24479 87.7708 13.125C87.7708 18.0052 83.7708 21.9063 78.8958 21.9063ZM17.4167 121.344C10.3906 121.344 4.73438 115.682 4.73438 108.656C4.73438 101.63 10.3906 95.974 17.4167 95.974C24.4427 95.974 30.1042 101.63 30.1042 108.656C30.1042 115.682 24.4427 121.344 17.4167 121.344ZM69.4271 82.5052C69.3281 87.3854 65.3281 91.3854 60.3542 91.3854C55.474 91.3854 51.276 87.2865 51.276 82.4063C51.276 77.4323 55.2813 73.4323 60.3542 73.4323C65.4271 73.4323 69.4271 77.4323 69.4271 82.4063V82.5052ZM110.411 92.0677C110.411 97.0469 106.411 101.047 101.339 101.047C96.2604 101.047 92.2604 97.0469 92.2604 92.0677C92.2604 87.0938 96.2604 83.0885 101.339 83.0885C106.411 83.0885 110.411 87.0938 110.411 92.0677ZM109.141 57.9167C102.12 57.9167 96.4583 52.2552 96.4583 45.2292C96.4583 38.2031 102.12 32.5469 109.141 32.5469C116.167 32.5469 121.828 38.2031 121.828 45.2292C121.828 52.2552 116.167 57.9167 109.141 57.9167Z" fill="black"/>
</g>
<path d="M118.901 73.8229C118.318 73.4323 117.536 73.526 116.948 73.9167L113.047 76.3594C112.167 76.9427 111.875 78.1146 112.458 79.0885C113.047 80.0677 114.219 80.2604 115.193 79.6771L116.073 79.0885V83.2864H115.776C116.557 84.4583 117.146 85.8229 117.536 87.1875H120.948C122.026 87.1875 122.901 86.3125 122.901 85.2396C122.901 84.1667 122.026 83.2864 120.948 83.2864H119.974V75.4792C119.875 74.7969 119.484 74.1146 118.901 73.8229Z" fill="black"/>
</svg>
