<svg width="70" height="40" viewBox="0 0 70 40" fill="none" xmlns="http://www.w3.org/2000/svg">
<path d="M9.97188 8.34525L4.0448 0.51712H0.0135498L8.22709 11.3713V17.814H11.5969V11.3713L19.8052 0.51712H15.9042L9.97188 8.34525Z" fill="black"/>
<path d="M28.8264 5.10046C26.5451 5.10046 24.2847 5.46505 22.4514 5.85046L21.7066 8.83484C23.6858 8.29838 26.0347 7.93901 28.2118 7.93901C31.6024 7.93901 32.4774 8.79317 32.4774 10.3713V10.5848C30.7691 10.4338 29.2326 10.3713 27.7639 10.3713C22.7274 10.3713 20.8524 11.8609 20.8524 14.1682V14.189C20.8524 16.9182 23.092 18.1578 27.9514 18.1578C30.1493 18.1578 33.1389 17.9182 35.9097 17.538V9.79317C35.9097 6.57442 34.0139 5.10046 28.8264 5.10046ZM24.3264 14.038C24.3264 12.8869 25.6493 12.5432 28.8733 12.5432C30.1076 12.5432 31.493 12.59 32.5191 12.7359V15.3817C31.6649 15.4911 30.4514 15.5536 28.8733 15.5536C25.5035 15.5536 24.3264 15.064 24.3264 14.0588V14.038Z" fill="black"/>
<path d="M45.6134 18.09C50.1343 18.09 52.5666 17.09 52.5666 14.314C52.5666 12.0119 51.0301 11.0744 47.7905 10.6265L44.077 10.1369C42.2437 9.88171 41.6655 9.77234 41.6655 9.06921C41.6655 8.34526 42.5614 8.00151 44.6759 8.00151C46.4051 8.00151 48.2593 8.21505 50.7749 8.81401L52.1395 6.08484C49.4728 5.44421 46.9989 5.10046 44.9728 5.10046C40.3426 5.10046 38.1707 6.36088 38.1707 8.83484C38.1707 11.2463 39.577 12.1838 43.2905 12.6317L46.827 13.038C48.6187 13.2515 49.0666 13.465 49.0666 14.189C49.0666 15.1473 47.7697 15.3192 45.5509 15.3192C43.7801 15.3192 40.8374 14.8921 38.8322 14.2098L37.7437 17.0223C40.1759 17.7098 43.1395 18.09 45.6134 18.09Z" fill="black"/>
<path d="M62.1641 5.07962C60.7787 5.07962 59.2422 5.20983 57.7474 5.42337V0.51712H54.3568V17.814H57.7474V8.47025C58.9245 8.27754 60.6276 8.11087 62.0131 8.11087C64.6589 8.11087 65.961 8.79316 65.961 10.9859V17.814H69.3516V10.4338C69.3516 6.4442 67.4349 5.07962 62.1641 5.07962Z" fill="black"/>
<path d="M9.01355 39.09C14.326 39.09 17.3521 37.3869 17.3521 34.0588V34.0171C17.3521 31.1161 15.649 29.6213 9.44063 28.3609C5.62293 27.5744 4.70626 26.9963 4.70626 26.0796V26.0379C4.70626 24.9286 6.11251 24.3504 8.84168 24.3504C11.1073 24.3504 13.899 24.8452 15.3729 25.6525L16.9042 22.8609C15.1385 21.9442 12.024 21.215 9.03438 21.215C4.06563 21.215 1.27397 22.965 1.27397 26.0588V26.1004C1.27397 29.2984 3.74793 30.5796 8.39376 31.4963C12.2115 32.2671 13.8781 32.8192 13.8781 34.0379V34.0796C13.8781 35.4234 12.0031 35.9546 8.84168 35.9546C6.41459 35.9546 4.06563 35.6161 2.10209 34.6317L0.591675 37.4911C2.46667 38.4494 5.51876 39.09 9.01355 39.09Z" fill="#F27C22"/>
<path d="M27.7608 39.1577C33.1149 39.1577 36.3389 36.5327 36.3389 32.6265V32.564C36.3389 28.663 33.1149 26.0796 27.7608 26.0796C22.4066 26.0796 19.1879 28.663 19.1879 32.564V32.6265C19.1879 36.5327 22.4066 39.1577 27.7608 39.1577ZM27.7608 36.1265C24.5629 36.1265 22.5785 34.6786 22.5785 32.6057V32.564C22.5785 30.4546 24.542 29.1109 27.7608 29.1109C30.9847 29.1109 32.9431 30.4546 32.9431 32.564V32.6057C32.9431 34.6786 30.9847 36.1265 27.7608 36.1265Z" fill="#F27C22"/>
<path d="M41.7513 38.814V21.5171H38.3607V38.814H41.7513Z" fill="#F27C22"/>
<path d="M52.3522 39.1577C57.7064 39.1577 60.9303 36.5327 60.9303 32.6265V32.564C60.9303 28.663 57.7064 26.0796 52.3522 26.0796C46.998 26.0796 43.7793 28.663 43.7793 32.564V32.6265C43.7793 36.5327 46.998 39.1577 52.3522 39.1577ZM52.3522 36.1265C49.1543 36.1265 47.1699 34.6786 47.1699 32.6057V32.564C47.1699 30.4546 49.1335 29.1109 52.3522 29.1109C55.5762 29.1109 57.5345 30.4546 57.5345 32.564V32.6057C57.5345 34.6786 55.5762 36.1265 52.3522 36.1265Z" fill="#F27C22"/>
</svg>
